<svg xmlns="http://www.w3.org/2000/svg" xmlns:xlink="http://www.w3.org/1999/xlink" zoomAndPan="magnify" viewBox="184 604 1108 401" preserveAspectRatio="xMidYMid meet" version="1.0"><defs><g/><clipPath id="76fc311b92"><rect x="0" width="1067" y="0" height="242"/></clipPath><clipPath id="96fc116c71"><rect x="0" width="347" y="0" height="82"/></clipPath></defs><g transform="matrix(1, 0, 0, 1, 206, 627)"><g clip-path="url(#76fc311b92)"><g fill="#F1EBDD" fill-opacity="1"><g transform="translate(4.50224, 190.223752)"><g><path d="M 121.53125 -1.1875 C 117.40625 -1.34375 113.238281 -1.378906 109.03125 -1.296875 C 104.832031 -1.222656 100.597656 -1.1875 96.328125 -1.1875 C 95.367188 -1.1875 94.613281 -2.847656 94.0625 -6.171875 C 93.507812 -9.503906 93.148438 -13.863281 92.984375 -19.25 C 92.828125 -24.644531 92.75 -30.472656 92.75 -36.734375 C 92.75 -43.003906 92.828125 -49.070312 92.984375 -54.9375 C 93.148438 -60.800781 93.269531 -65.875 93.34375 -70.15625 C 93.425781 -74.4375 93.46875 -77.210938 93.46875 -78.484375 C 93.3125 -87.359375 91.921875 -94.09375 89.296875 -98.6875 C 86.679688 -103.289062 83.429688 -106.460938 79.546875 -108.203125 C 75.671875 -109.953125 71.828125 -110.828125 68.015625 -110.828125 L 67.546875 -110.828125 C 58.503906 -110.828125 51.164062 -107.773438 45.53125 -101.671875 C 39.90625 -95.566406 36.9375 -87.597656 36.625 -77.765625 C 36.46875 -71.421875 36.390625 -65.078125 36.390625 -58.734375 C 36.390625 -52.398438 36.390625 -46.0625 36.390625 -39.71875 C 36.546875 -34.800781 36.976562 -29.367188 37.6875 -23.421875 C 38.40625 -17.472656 38.289062 -12.046875 37.34375 -7.140625 C 36.707031 -3.492188 35.238281 -1.550781 32.9375 -1.3125 C 30.632812 -1.070312 28.054688 -0.875 25.203125 -0.71875 C 23.304688 -0.550781 20.8125 -0.347656 17.71875 -0.109375 C 14.625 0.117188 11.609375 0 8.671875 -0.46875 C 5.742188 -0.945312 3.566406 -2.140625 2.140625 -4.046875 C 0.398438 -6.578125 -0.234375 -9.625 0.234375 -13.1875 C 0.710938 -16.757812 1.03125 -19.894531 1.1875 -22.59375 C 1.820312 -31.3125 2.296875 -40.191406 2.609375 -49.234375 C 3.085938 -66.359375 2.613281 -83.398438 1.1875 -100.359375 C 0.875 -103.691406 0.632812 -107.578125 0.46875 -112.015625 C 0.3125 -116.453125 0.671875 -120.691406 1.546875 -124.734375 C 2.421875 -128.785156 4.164062 -131.957031 6.78125 -134.25 C 9.394531 -136.550781 13.316406 -137.226562 18.546875 -136.28125 C 22.828125 -135.488281 27.03125 -134.492188 31.15625 -133.296875 C 35.28125 -132.109375 39.484375 -131.117188 43.765625 -130.328125 C 44.078125 -130.328125 44.429688 -130.328125 44.828125 -130.328125 C 45.222656 -130.328125 45.5 -130.328125 45.65625 -130.328125 C 48.675781 -130.328125 51.691406 -130.921875 54.703125 -132.109375 C 57.710938 -133.296875 60.800781 -134.523438 63.96875 -135.796875 C 67.144531 -137.066406 70.316406 -137.78125 73.484375 -137.9375 C 82.679688 -138.726562 91.40625 -137.144531 99.65625 -133.1875 C 106.789062 -129.851562 112.296875 -125.488281 116.171875 -120.09375 C 120.054688 -114.707031 122.867188 -108.765625 124.609375 -102.265625 C 126.359375 -95.765625 127.472656 -89.023438 127.953125 -82.046875 C 128.429688 -75.078125 128.828125 -68.179688 129.140625 -61.359375 C 129.140625 -59.929688 129.296875 -57 129.609375 -52.5625 C 129.929688 -48.125 130.128906 -43.007812 130.203125 -37.21875 C 130.285156 -31.4375 130.164062 -25.804688 129.84375 -20.328125 C 129.53125 -14.859375 128.78125 -10.300781 127.59375 -6.65625 C 126.40625 -3.007812 124.625 -1.1875 122.25 -1.1875 C 122.082031 -1.1875 121.957031 -1.1875 121.875 -1.1875 C 121.800781 -1.1875 121.6875 -1.1875 121.53125 -1.1875 Z M 121.53125 -1.1875 "/></g></g></g><g fill="#F1EBDD" fill-opacity="1"><g transform="translate(137.206073, 190.223752)"><g><path d="M 116.296875 -5.953125 C 115.023438 -4.359375 113.046875 -3.484375 110.359375 -3.328125 C 107.816406 -3.328125 105.351562 -3.84375 102.96875 -4.875 C 100.59375 -5.90625 98.253906 -6.9375 95.953125 -7.96875 C 93.660156 -9 91.164062 -9.515625 88.46875 -9.515625 C 86.726562 -9.515625 84.984375 -9.394531 83.234375 -9.15625 C 81.492188 -8.914062 79.910156 -8.640625 78.484375 -8.328125 L 77.296875 -8.09375 C 72.691406 -7.289062 68.207031 -6.253906 63.84375 -4.984375 C 59.488281 -3.722656 55.410156 -2.457031 51.609375 -1.1875 C 49.867188 -0.707031 48.082031 -0.3125 46.25 0 C 44.425781 0.3125 42.566406 0.46875 40.671875 0.46875 C 29.097656 0.46875 19.347656 -4.125 11.421875 -13.3125 C 2.378906 -23.625 -1.1875 -36.3125 0.71875 -51.375 C 1.507812 -57.394531 3.609375 -62.78125 7.015625 -67.53125 C 10.421875 -72.289062 14.742188 -75.941406 19.984375 -78.484375 C 22.671875 -79.753906 25.519531 -80.664062 28.53125 -81.21875 C 31.550781 -81.769531 34.644531 -82.285156 37.8125 -82.765625 C 38.601562 -82.765625 39.316406 -82.800781 39.953125 -82.875 C 40.585938 -82.957031 41.222656 -83.078125 41.859375 -83.234375 L 73.015625 -87.515625 C 77.140625 -88.148438 79.710938 -89.378906 80.734375 -91.203125 C 81.765625 -93.023438 82.363281 -94.492188 82.53125 -95.609375 C 82.84375 -98.304688 82.007812 -100.765625 80.03125 -102.984375 C 78.050781 -105.203125 75.710938 -106.707031 73.015625 -107.5 C 68.097656 -109.40625 63.023438 -110.359375 57.796875 -110.359375 L 57.078125 -110.359375 C 52.160156 -110.191406 47.484375 -109.472656 43.046875 -108.203125 C 38.609375 -106.941406 34.328125 -105.4375 30.203125 -103.6875 C 28.929688 -103.050781 27.425781 -102.734375 25.6875 -102.734375 C 22.195312 -102.734375 18.75 -103.882812 15.34375 -106.1875 C 11.9375 -108.488281 9.519531 -111.222656 8.09375 -114.390625 C 7.457031 -115.660156 7.175781 -116.726562 7.25 -117.59375 C 7.332031 -118.46875 7.453125 -119.144531 7.609375 -119.625 C 8.554688 -121.6875 10.414062 -123.550781 13.1875 -125.21875 C 15.96875 -126.882812 18.90625 -128.3125 22 -129.5 C 25.09375 -130.6875 27.671875 -131.597656 29.734375 -132.234375 C 41.148438 -135.878906 52.644531 -137.703125 64.21875 -137.703125 C 65.320312 -137.703125 66.425781 -137.703125 67.53125 -137.703125 C 68.644531 -137.703125 69.757812 -137.625 70.875 -137.46875 C 76.425781 -137.144531 82.566406 -136.070312 89.296875 -134.25 C 96.035156 -132.425781 101.785156 -128.976562 106.546875 -123.90625 C 112.097656 -117.882812 115.425781 -111.859375 116.53125 -105.828125 C 117.800781 -99.015625 118.238281 -91.921875 117.84375 -84.546875 C 117.445312 -77.171875 117.328125 -70 117.484375 -63.03125 C 117.484375 -55.894531 117.484375 -48.71875 117.484375 -41.5 C 117.484375 -34.289062 117.5625 -27.195312 117.71875 -20.21875 C 117.71875 -17.832031 117.835938 -15.289062 118.078125 -12.59375 C 118.316406 -9.90625 117.722656 -7.691406 116.296875 -5.953125 Z M 81.8125 -46.859375 C 83.082031 -49.390625 83.476562 -51.523438 83 -53.265625 C 82.519531 -55.015625 82.046875 -56.207031 81.578125 -56.84375 C 80.941406 -57.789062 79.945312 -58.703125 78.59375 -59.578125 C 77.25 -60.453125 75.390625 -60.96875 73.015625 -61.125 L 71.109375 -61.359375 C 69.679688 -61.515625 68.210938 -61.59375 66.703125 -61.59375 C 65.203125 -61.59375 63.578125 -61.59375 61.828125 -61.59375 C 59.140625 -61.59375 55.890625 -61.316406 52.078125 -60.765625 C 48.273438 -60.210938 44.628906 -58.742188 41.140625 -56.359375 C 38.765625 -54.460938 37.257812 -52.484375 36.625 -50.421875 C 35.988281 -48.671875 35.910156 -46.453125 36.390625 -43.765625 C 37.492188 -38.847656 39.628906 -35.039062 42.796875 -32.34375 C 45.972656 -29.644531 49.78125 -28.296875 54.21875 -28.296875 C 59.769531 -28.296875 65.238281 -30.117188 70.625 -33.765625 C 76.019531 -37.410156 79.75 -41.773438 81.8125 -46.859375 Z M 81.8125 -46.859375 "/></g></g></g><g fill="#F1EBDD" fill-opacity="1"><g transform="translate(257.78105, 190.223752)"><g><path d="M 9.03125 -149.828125 C 5.550781 -152.046875 3.015625 -155.175781 1.421875 -159.21875 C -0.160156 -163.269531 -0.238281 -167.671875 1.1875 -172.421875 C 3.882812 -181.773438 10.226562 -186.613281 20.21875 -186.9375 L 20.6875 -186.9375 C 25.601562 -186.9375 29.722656 -185.625 33.046875 -183 C 36.378906 -180.382812 38.601562 -176.78125 39.71875 -172.1875 C 41.144531 -166.476562 40.585938 -161.242188 38.046875 -156.484375 C 35.515625 -151.734375 31.234375 -148.644531 25.203125 -147.21875 C 22.191406 -146.582031 19.296875 -146.5 16.515625 -146.96875 C 13.742188 -147.445312 11.25 -148.398438 9.03125 -149.828125 Z M 5.703125 -126.046875 C 7.921875 -127.472656 11.09375 -128.109375 15.21875 -127.953125 C 17.59375 -127.953125 20.207031 -128.03125 23.0625 -128.1875 C 25.914062 -128.34375 28.570312 -128.0625 31.03125 -127.34375 C 33.488281 -126.632812 35.113281 -125.015625 35.90625 -122.484375 C 37.332031 -118.515625 37.804688 -113.71875 37.328125 -108.09375 C 36.859375 -102.46875 36.625 -97.59375 36.625 -93.46875 C 36.78125 -83.789062 36.859375 -74.195312 36.859375 -64.6875 C 36.859375 -55.175781 36.9375 -45.582031 37.09375 -35.90625 C 37.09375 -34.320312 37.289062 -31.664062 37.6875 -27.9375 C 38.09375 -24.21875 38.332031 -20.21875 38.40625 -15.9375 C 38.488281 -11.65625 38.050781 -8.003906 37.09375 -4.984375 C 36.144531 -1.972656 34.242188 -0.390625 31.390625 -0.234375 C 27.742188 -0.078125 23.9375 0.0351562 19.96875 0.109375 C 16.007812 0.191406 12.207031 0 8.5625 -0.46875 C 6.019531 -0.789062 4.273438 -2.179688 3.328125 -4.640625 C 2.378906 -7.097656 1.863281 -10.066406 1.78125 -13.546875 C 1.707031 -17.035156 1.828125 -20.363281 2.140625 -23.53125 C 2.453125 -26.707031 2.609375 -29.171875 2.609375 -30.921875 C 2.453125 -37.421875 2.332031 -43.957031 2.25 -50.53125 C 2.175781 -57.113281 2.140625 -63.65625 2.140625 -70.15625 C 1.984375 -75.707031 1.90625 -81.253906 1.90625 -86.796875 C 1.90625 -92.347656 1.828125 -97.820312 1.671875 -103.21875 C 1.671875 -107.8125 1.585938 -112.25 1.421875 -116.53125 C 1.265625 -120.8125 2.691406 -123.984375 5.703125 -126.046875 Z M 5.703125 -126.046875 "/></g></g></g><g fill="#F1EBDD" fill-opacity="1"><g transform="translate(300.826364, 190.223752)"><g><path d="M 35.4375 -3.328125 C 34.320312 -1.898438 32.734375 -1.109375 30.671875 -0.953125 C 28.617188 -0.796875 26.484375 -0.554688 24.265625 -0.234375 C 22.203125 -0.078125 19.78125 0.078125 17 0.234375 C 14.226562 0.390625 11.613281 0.113281 9.15625 -0.59375 C 6.695312 -1.3125 4.832031 -2.78125 3.5625 -5 C 1.664062 -8.488281 0.554688 -12.332031 0.234375 -16.53125 C -0.078125 -20.726562 0 -25.003906 0.46875 -29.359375 C 0.945312 -33.722656 1.1875 -37.8125 1.1875 -41.625 C 1.34375 -49.070312 1.460938 -56.484375 1.546875 -63.859375 C 1.628906 -71.234375 1.75 -78.644531 1.90625 -86.09375 C 2.0625 -100.84375 2.097656 -115.628906 2.015625 -130.453125 C 1.941406 -145.273438 1.742188 -160.054688 1.421875 -174.796875 C 1.421875 -178.921875 2.289062 -181.894531 4.03125 -183.71875 C 5.78125 -185.539062 8.082031 -186.609375 10.9375 -186.921875 C 13.789062 -187.242188 16.878906 -187.164062 20.203125 -186.6875 C 23.535156 -186.21875 26.710938 -185.820312 29.734375 -185.5 C 33.054688 -185.1875 35.234375 -183.40625 36.265625 -180.15625 C 37.296875 -176.90625 37.769531 -173.414062 37.6875 -169.6875 C 37.613281 -165.957031 37.5 -162.984375 37.34375 -160.765625 C 37.019531 -153.472656 36.816406 -146.097656 36.734375 -138.640625 C 36.660156 -131.191406 36.625 -123.742188 36.625 -116.296875 C 36.625 -98.222656 36.625 -80.144531 36.625 -62.0625 C 36.625 -43.988281 36.625 -25.914062 36.625 -7.84375 C 36.625 -5.945312 36.226562 -4.441406 35.4375 -3.328125 Z M 35.4375 -3.328125 "/></g></g></g><g fill="#F1EBDD" fill-opacity="1"><g transform="translate(341.017888, 190.223752)"><g><path d="M 81.8125 -6.1875 C 73.09375 -2.0625 64.289062 0 55.40625 0 C 50.332031 0 44.742188 -0.710938 38.640625 -2.140625 C 32.535156 -3.566406 26.585938 -5.390625 20.796875 -7.609375 C 15.015625 -9.828125 9.90625 -12.207031 5.46875 -14.75 C 2.132812 -16.644531 0.390625 -18.582031 0.234375 -20.5625 C 0.078125 -22.550781 0.789062 -24.613281 2.375 -26.75 C 3.957031 -28.894531 5.460938 -31.234375 6.890625 -33.765625 C 7.367188 -34.554688 7.882812 -35.304688 8.4375 -36.015625 C 9 -36.734375 9.597656 -37.332031 10.234375 -37.8125 C 11.972656 -39.082031 13.789062 -39.476562 15.6875 -39 C 17.59375 -38.53125 19.457031 -37.738281 21.28125 -36.625 C 23.101562 -35.507812 24.726562 -34.554688 26.15625 -33.765625 C 31.070312 -31.078125 36.460938 -29.097656 42.328125 -27.828125 C 48.203125 -26.554688 53.910156 -26.082031 59.453125 -26.40625 C 63.578125 -26.71875 67.382812 -27.625 70.875 -29.125 C 74.363281 -30.632812 76.421875 -32.738281 77.046875 -35.4375 C 77.679688 -38.132812 75.78125 -41.304688 71.34375 -44.953125 C 65.476562 -49.546875 59.253906 -53.347656 52.671875 -56.359375 C 46.097656 -59.378906 39.320312 -62 32.34375 -64.21875 C 25.84375 -66.28125 20.609375 -69.367188 16.640625 -73.484375 C 12.679688 -77.609375 9.867188 -82.207031 8.203125 -87.28125 C 6.535156 -92.351562 6.019531 -97.269531 6.65625 -102.03125 C 7.445312 -107.101562 9.425781 -111.9375 12.59375 -116.53125 C 15.769531 -121.132812 19.734375 -125.175781 24.484375 -128.65625 C 29.242188 -132.144531 34.398438 -134.523438 39.953125 -135.796875 C 43.128906 -136.585938 46.222656 -137.179688 49.234375 -137.578125 C 52.242188 -137.972656 55.253906 -138.171875 58.265625 -138.171875 C 63.972656 -138.171875 69.601562 -137.5 75.15625 -136.15625 C 80.707031 -134.8125 86.019531 -132.945312 91.09375 -130.5625 C 95.6875 -128.5 98.972656 -126.554688 100.953125 -124.734375 C 102.941406 -122.910156 103.65625 -120.726562 103.09375 -118.1875 C 102.539062 -115.65625 100.679688 -112.09375 97.515625 -107.5 C 95.128906 -104.007812 92.429688 -102.066406 89.421875 -101.671875 C 86.410156 -101.273438 83.160156 -101.707031 79.671875 -102.96875 C 76.179688 -104.238281 72.648438 -105.785156 69.078125 -107.609375 C 65.515625 -109.441406 62.03125 -110.988281 58.625 -112.25 C 55.21875 -113.519531 52.085938 -113.914062 49.234375 -113.4375 C 46.378906 -112.96875 43.84375 -110.988281 41.625 -107.5 C 39.5625 -104.007812 38.960938 -100.957031 39.828125 -98.34375 C 40.703125 -95.726562 42.488281 -93.46875 45.1875 -91.5625 C 47.882812 -89.65625 51.015625 -88.066406 54.578125 -86.796875 C 58.148438 -85.535156 61.597656 -84.425781 64.921875 -83.46875 C 68.253906 -82.519531 70.953125 -81.648438 73.015625 -80.859375 C 79.035156 -78.640625 84.898438 -75.941406 90.609375 -72.765625 C 96.316406 -69.597656 100.914062 -65.160156 104.40625 -59.453125 C 109.164062 -51.523438 110.867188 -44.113281 109.515625 -37.21875 C 108.171875 -30.320312 104.960938 -24.21875 99.890625 -18.90625 C 94.816406 -13.59375 88.789062 -9.351562 81.8125 -6.1875 Z M 81.8125 -6.1875 "/></g></g></g><g fill="#F1EBDD" fill-opacity="1"><g transform="translate(453.26914, 190.223752)"><g><path d="M 35.4375 -3.328125 C 34.320312 -1.898438 32.734375 -1.109375 30.671875 -0.953125 C 28.617188 -0.796875 26.484375 -0.554688 24.265625 -0.234375 C 22.203125 -0.078125 19.78125 0.078125 17 0.234375 C 14.226562 0.390625 11.613281 0.113281 9.15625 -0.59375 C 6.695312 -1.3125 4.832031 -2.78125 3.5625 -5 C 1.664062 -8.488281 0.554688 -12.332031 0.234375 -16.53125 C -0.078125 -20.726562 0 -25.003906 0.46875 -29.359375 C 0.945312 -33.722656 1.1875 -37.8125 1.1875 -41.625 C 1.34375 -49.070312 1.460938 -56.484375 1.546875 -63.859375 C 1.628906 -71.234375 1.75 -78.644531 1.90625 -86.09375 C 2.0625 -100.84375 2.097656 -115.628906 2.015625 -130.453125 C 1.941406 -145.273438 1.742188 -160.054688 1.421875 -174.796875 C 1.421875 -178.921875 2.289062 -181.894531 4.03125 -183.71875 C 5.78125 -185.539062 8.082031 -186.609375 10.9375 -186.921875 C 13.789062 -187.242188 16.878906 -187.164062 20.203125 -186.6875 C 23.535156 -186.21875 26.710938 -185.820312 29.734375 -185.5 C 33.054688 -185.1875 35.234375 -183.40625 36.265625 -180.15625 C 37.296875 -176.90625 37.769531 -173.414062 37.6875 -169.6875 C 37.613281 -165.957031 37.5 -162.984375 37.34375 -160.765625 C 37.019531 -153.472656 36.816406 -146.097656 36.734375 -138.640625 C 36.660156 -131.191406 36.625 -123.742188 36.625 -116.296875 C 36.625 -98.222656 36.625 -80.144531 36.625 -62.0625 C 36.625 -43.988281 36.625 -25.914062 36.625 -7.84375 C 36.625 -5.945312 36.226562 -4.441406 35.4375 -3.328125 Z M 35.4375 -3.328125 "/></g></g></g><g fill="#F1EBDD" fill-opacity="1"><g transform="translate(493.460664, 190.223752)"><g><path d="M 9.03125 -149.828125 C 5.550781 -152.046875 3.015625 -155.175781 1.421875 -159.21875 C -0.160156 -163.269531 -0.238281 -167.671875 1.1875 -172.421875 C 3.882812 -181.773438 10.226562 -186.613281 20.21875 -186.9375 L 20.6875 -186.9375 C 25.601562 -186.9375 29.722656 -185.625 33.046875 -183 C 36.378906 -180.382812 38.601562 -176.78125 39.71875 -172.1875 C 41.144531 -166.476562 40.585938 -161.242188 38.046875 -156.484375 C 35.515625 -151.734375 31.234375 -148.644531 25.203125 -147.21875 C 22.191406 -146.582031 19.296875 -146.5 16.515625 -146.96875 C 13.742188 -147.445312 11.25 -148.398438 9.03125 -149.828125 Z M 5.703125 -126.046875 C 7.921875 -127.472656 11.09375 -128.109375 15.21875 -127.953125 C 17.59375 -127.953125 20.207031 -128.03125 23.0625 -128.1875 C 25.914062 -128.34375 28.570312 -128.0625 31.03125 -127.34375 C 33.488281 -126.632812 35.113281 -125.015625 35.90625 -122.484375 C 37.332031 -118.515625 37.804688 -113.71875 37.328125 -108.09375 C 36.859375 -102.46875 36.625 -97.59375 36.625 -93.46875 C 36.78125 -83.789062 36.859375 -74.195312 36.859375 -64.6875 C 36.859375 -55.175781 36.9375 -45.582031 37.09375 -35.90625 C 37.09375 -34.320312 37.289062 -31.664062 37.6875 -27.9375 C 38.09375 -24.21875 38.332031 -20.21875 38.40625 -15.9375 C 38.488281 -11.65625 38.050781 -8.003906 37.09375 -4.984375 C 36.144531 -1.972656 34.242188 -0.390625 31.390625 -0.234375 C 27.742188 -0.078125 23.9375 0.0351562 19.96875 0.109375 C 16.007812 0.191406 12.207031 0 8.5625 -0.46875 C 6.019531 -0.789062 4.273438 -2.179688 3.328125 -4.640625 C 2.378906 -7.097656 1.863281 -10.066406 1.78125 -13.546875 C 1.707031 -17.035156 1.828125 -20.363281 2.140625 -23.53125 C 2.453125 -26.707031 2.609375 -29.171875 2.609375 -30.921875 C 2.453125 -37.421875 2.332031 -43.957031 2.25 -50.53125 C 2.175781 -57.113281 2.140625 -63.65625 2.140625 -70.15625 C 1.984375 -75.707031 1.90625 -81.253906 1.90625 -86.796875 C 1.90625 -92.347656 1.828125 -97.820312 1.671875 -103.21875 C 1.671875 -107.8125 1.585938 -112.25 1.421875 -116.53125 C 1.265625 -120.8125 2.691406 -123.984375 5.703125 -126.046875 Z M 5.703125 -126.046875 "/></g></g></g><g fill="#F1EBDD" fill-opacity="1"><g transform="translate(536.505978, 190.223752)"><g><path d="M 121.53125 -1.1875 C 117.40625 -1.34375 113.238281 -1.378906 109.03125 -1.296875 C 104.832031 -1.222656 100.597656 -1.1875 96.328125 -1.1875 C 95.367188 -1.1875 94.613281 -2.847656 94.0625 -6.171875 C 93.507812 -9.503906 93.148438 -13.863281 92.984375 -19.25 C 92.828125 -24.644531 92.75 -30.472656 92.75 -36.734375 C 92.75 -43.003906 92.828125 -49.070312 92.984375 -54.9375 C 93.148438 -60.800781 93.269531 -65.875 93.34375 -70.15625 C 93.425781 -74.4375 93.46875 -77.210938 93.46875 -78.484375 C 93.3125 -87.359375 91.921875 -94.09375 89.296875 -98.6875 C 86.679688 -103.289062 83.429688 -106.460938 79.546875 -108.203125 C 75.671875 -109.953125 71.828125 -110.828125 68.015625 -110.828125 L 67.546875 -110.828125 C 58.503906 -110.828125 51.164062 -107.773438 45.53125 -101.671875 C 39.90625 -95.566406 36.9375 -87.597656 36.625 -77.765625 C 36.46875 -71.421875 36.390625 -65.078125 36.390625 -58.734375 C 36.390625 -52.398438 36.390625 -46.0625 36.390625 -39.71875 C 36.546875 -34.800781 36.976562 -29.367188 37.6875 -23.421875 C 38.40625 -17.472656 38.289062 -12.046875 37.34375 -7.140625 C 36.707031 -3.492188 35.238281 -1.550781 32.9375 -1.3125 C 30.632812 -1.070312 28.054688 -0.875 25.203125 -0.71875 C 23.304688 -0.550781 20.8125 -0.347656 17.71875 -0.109375 C 14.625 0.117188 11.609375 0 8.671875 -0.46875 C 5.742188 -0.945312 3.566406 -2.140625 2.140625 -4.046875 C 0.398438 -6.578125 -0.234375 -9.625 0.234375 -13.1875 C 0.710938 -16.757812 1.03125 -19.894531 1.1875 -22.59375 C 1.820312 -31.3125 2.296875 -40.191406 2.609375 -49.234375 C 3.085938 -66.359375 2.613281 -83.398438 1.1875 -100.359375 C 0.875 -103.691406 0.632812 -107.578125 0.46875 -112.015625 C 0.3125 -116.453125 0.671875 -120.691406 1.546875 -124.734375 C 2.421875 -128.785156 4.164062 -131.957031 6.78125 -134.25 C 9.394531 -136.550781 13.316406 -137.226562 18.546875 -136.28125 C 22.828125 -135.488281 27.03125 -134.492188 31.15625 -133.296875 C 35.28125 -132.109375 39.484375 -131.117188 43.765625 -130.328125 C 44.078125 -130.328125 44.429688 -130.328125 44.828125 -130.328125 C 45.222656 -130.328125 45.5 -130.328125 45.65625 -130.328125 C 48.675781 -130.328125 51.691406 -130.921875 54.703125 -132.109375 C 57.710938 -133.296875 60.800781 -134.523438 63.96875 -135.796875 C 67.144531 -137.066406 70.316406 -137.78125 73.484375 -137.9375 C 82.679688 -138.726562 91.40625 -137.144531 99.65625 -133.1875 C 106.789062 -129.851562 112.296875 -125.488281 116.171875 -120.09375 C 120.054688 -114.707031 122.867188 -108.765625 124.609375 -102.265625 C 126.359375 -95.765625 127.472656 -89.023438 127.953125 -82.046875 C 128.429688 -75.078125 128.828125 -68.179688 129.140625 -61.359375 C 129.140625 -59.929688 129.296875 -57 129.609375 -52.5625 C 129.929688 -48.125 130.128906 -43.007812 130.203125 -37.21875 C 130.285156 -31.4375 130.164062 -25.804688 129.84375 -20.328125 C 129.53125 -14.859375 128.78125 -10.300781 127.59375 -6.65625 C 126.40625 -3.007812 124.625 -1.1875 122.25 -1.1875 C 122.082031 -1.1875 121.957031 -1.1875 121.875 -1.1875 C 121.800781 -1.1875 121.6875 -1.1875 121.53125 -1.1875 Z M 121.53125 -1.1875 "/></g></g></g><g fill="#F1EBDD" fill-opacity="1"><g transform="translate(669.209833, 190.223752)"><g><path d="M 9.75 -32.8125 C 4.675781 -42.007812 1.625 -51.363281 0.59375 -60.875 C -0.4375 -70.394531 0.234375 -79.550781 2.609375 -88.34375 C 4.992188 -97.144531 8.601562 -105.035156 13.4375 -112.015625 C 18.269531 -118.992188 23.9375 -124.460938 30.4375 -128.421875 C 39.320312 -133.816406 49.234375 -136.515625 60.171875 -136.515625 C 62.390625 -136.515625 65.203125 -136.035156 68.609375 -135.078125 C 72.023438 -134.128906 75.59375 -133.140625 79.3125 -132.109375 C 83.039062 -131.078125 86.609375 -130.484375 90.015625 -130.328125 C 93.421875 -130.171875 96.3125 -130.804688 98.6875 -132.234375 C 101.070312 -133.660156 102.582031 -136.351562 103.21875 -140.3125 C 104.007812 -146.019531 104.164062 -152.203125 103.6875 -158.859375 C 103.21875 -165.523438 102.820312 -171.789062 102.5 -177.65625 C 102.34375 -181.625 103.132812 -184.160156 104.875 -185.265625 C 106.625 -186.378906 108.960938 -186.851562 111.890625 -186.6875 C 114.828125 -186.53125 117.800781 -186.375 120.8125 -186.21875 C 123.664062 -186.21875 126.359375 -186.414062 128.890625 -186.8125 C 131.429688 -187.207031 133.492188 -187.007812 135.078125 -186.21875 C 136.671875 -185.425781 137.46875 -183.046875 137.46875 -179.078125 C 137.46875 -164.492188 137.46875 -149.90625 137.46875 -135.3125 C 137.46875 -120.726562 137.46875 -106.144531 137.46875 -91.5625 C 137.3125 -78.082031 137.628906 -64.566406 138.421875 -51.015625 C 139.210938 -37.460938 138.972656 -23.945312 137.703125 -10.46875 C 137.390625 -6.976562 136.28125 -4.71875 134.375 -3.6875 C 132.46875 -2.65625 130.164062 -2.335938 127.46875 -2.734375 C 124.78125 -3.128906 122.007812 -3.800781 119.15625 -4.75 C 116.300781 -5.707031 113.679688 -6.34375 111.296875 -6.65625 C 105.429688 -7.445312 99.960938 -7.523438 94.890625 -6.890625 C 89.816406 -6.265625 84.503906 -4.835938 78.953125 -2.609375 C 70.078125 0.710938 60.882812 1.265625 51.375 -0.953125 C 42.65625 -2.859375 34.566406 -6.703125 27.109375 -12.484375 C 19.660156 -18.273438 13.875 -25.050781 9.75 -32.8125 Z M 69.921875 -108.921875 C 63.898438 -108.921875 58.234375 -106.976562 52.921875 -103.09375 C 47.609375 -99.207031 43.285156 -94.171875 39.953125 -87.984375 C 36.617188 -81.804688 34.953125 -75.226562 34.953125 -68.25 C 34.953125 -61.59375 36.578125 -55.289062 39.828125 -49.34375 C 43.085938 -43.40625 47.367188 -38.570312 52.671875 -34.84375 C 57.984375 -31.113281 63.65625 -29.171875 69.6875 -29.015625 L 70.640625 -29.015625 C 78.722656 -29.015625 85.695312 -31.945312 91.5625 -37.8125 C 99.007812 -45.582031 102.734375 -55.8125 102.734375 -68.5 C 102.734375 -80.226562 99.722656 -89.859375 93.703125 -97.390625 C 87.679688 -104.921875 79.910156 -108.765625 70.390625 -108.921875 Z M 69.921875 -108.921875 "/></g></g></g><g fill="#F1EBDD" fill-opacity="1"><g transform="translate(810.475224, 190.223752)"><g><path d="M 133.421875 -60.40625 C 131.515625 -58.820312 128.695312 -57.75 124.96875 -57.1875 C 121.25 -56.632812 117.285156 -56.359375 113.078125 -56.359375 C 108.878906 -56.359375 104.957031 -56.4375 101.3125 -56.59375 C 97.664062 -56.757812 94.890625 -56.84375 92.984375 -56.84375 C 84.742188 -56.6875 76.578125 -56.566406 68.484375 -56.484375 C 60.398438 -56.398438 52.238281 -56.359375 44 -56.359375 C 41.457031 -56.359375 39.828125 -55.566406 39.109375 -53.984375 C 38.398438 -52.398438 38.320312 -50.613281 38.875 -48.625 C 39.4375 -46.644531 40.191406 -44.941406 41.140625 -43.515625 C 44.472656 -39.234375 48.632812 -35.785156 53.625 -33.171875 C 58.625 -30.554688 63.816406 -28.929688 69.203125 -28.296875 C 75.234375 -27.660156 80.269531 -28.492188 84.3125 -30.796875 C 88.351562 -33.097656 92.910156 -35.515625 97.984375 -38.046875 C 100.359375 -39.316406 101.984375 -40.109375 102.859375 -40.421875 C 103.734375 -40.742188 105.203125 -40.035156 107.265625 -38.296875 C 109.484375 -36.546875 111.582031 -34.164062 113.5625 -31.15625 C 115.539062 -28.144531 117.484375 -25.53125 119.390625 -23.3125 C 121.453125 -20.613281 121.375 -18.070312 119.15625 -15.6875 C 116.9375 -13.3125 113.523438 -11.132812 108.921875 -9.15625 C 104.328125 -7.175781 99.332031 -5.472656 93.9375 -4.046875 C 88.550781 -2.617188 83.675781 -1.507812 79.3125 -0.71875 C 74.957031 0.0703125 71.984375 0.46875 70.390625 0.46875 C 59.773438 0.46875 49.988281 -1.628906 41.03125 -5.828125 C 32.070312 -10.023438 24.421875 -15.726562 18.078125 -22.9375 C 11.734375 -30.15625 6.972656 -38.285156 3.796875 -47.328125 C 0.628906 -56.367188 -0.597656 -65.84375 0.109375 -75.75 C 0.828125 -85.65625 3.882812 -95.285156 9.28125 -104.640625 C 13.394531 -111.929688 18.898438 -118.113281 25.796875 -123.1875 C 32.703125 -128.269531 40.316406 -132.035156 48.640625 -134.484375 C 56.960938 -136.941406 65.484375 -138.050781 74.203125 -137.8125 C 82.921875 -137.582031 91.203125 -135.84375 99.046875 -132.59375 C 106.898438 -129.34375 113.757812 -124.46875 119.625 -117.96875 C 122.320312 -114.945312 124.898438 -111.175781 127.359375 -106.65625 C 129.816406 -102.144531 131.914062 -97.269531 133.65625 -92.03125 C 135.40625 -86.800781 136.476562 -81.6875 136.875 -76.6875 C 137.269531 -71.695312 136.753906 -67.144531 135.328125 -63.03125 C 135.003906 -62.070312 134.367188 -61.195312 133.421875 -60.40625 Z M 97.515625 -85.140625 C 97.984375 -86.253906 98.140625 -87.441406 97.984375 -88.703125 C 97.828125 -90.609375 96.957031 -92.4375 95.375 -94.1875 C 91.09375 -100.207031 85.539062 -104.644531 78.71875 -107.5 C 71.90625 -110.351562 64.929688 -110.191406 57.796875 -107.015625 C 54.617188 -105.585938 51.644531 -103.765625 48.875 -101.546875 C 46.101562 -99.328125 43.523438 -96.953125 41.140625 -94.421875 C 40.503906 -93.785156 39.867188 -93.070312 39.234375 -92.28125 C 38.609375 -91.488281 38.132812 -90.613281 37.8125 -89.65625 C 37.175781 -87.757812 37.492188 -86.015625 38.765625 -84.421875 C 40.035156 -82.835938 41.617188 -82.046875 43.515625 -82.046875 L 92.046875 -82.046875 C 94.734375 -82.046875 96.554688 -83.078125 97.515625 -85.140625 Z M 97.515625 -85.140625 "/></g></g></g><g fill="#F1EBDD" fill-opacity="1"><g transform="translate(949.838043, 190.223752)"><g><path d="M 81.8125 -6.1875 C 73.09375 -2.0625 64.289062 0 55.40625 0 C 50.332031 0 44.742188 -0.710938 38.640625 -2.140625 C 32.535156 -3.566406 26.585938 -5.390625 20.796875 -7.609375 C 15.015625 -9.828125 9.90625 -12.207031 5.46875 -14.75 C 2.132812 -16.644531 0.390625 -18.582031 0.234375 -20.5625 C 0.078125 -22.550781 0.789062 -24.613281 2.375 -26.75 C 3.957031 -28.894531 5.460938 -31.234375 6.890625 -33.765625 C 7.367188 -34.554688 7.882812 -35.304688 8.4375 -36.015625 C 9 -36.734375 9.597656 -37.332031 10.234375 -37.8125 C 11.972656 -39.082031 13.789062 -39.476562 15.6875 -39 C 17.59375 -38.53125 19.457031 -37.738281 21.28125 -36.625 C 23.101562 -35.507812 24.726562 -34.554688 26.15625 -33.765625 C 31.070312 -31.078125 36.460938 -29.097656 42.328125 -27.828125 C 48.203125 -26.554688 53.910156 -26.082031 59.453125 -26.40625 C 63.578125 -26.71875 67.382812 -27.625 70.875 -29.125 C 74.363281 -30.632812 76.421875 -32.738281 77.046875 -35.4375 C 77.679688 -38.132812 75.78125 -41.304688 71.34375 -44.953125 C 65.476562 -49.546875 59.253906 -53.347656 52.671875 -56.359375 C 46.097656 -59.378906 39.320312 -62 32.34375 -64.21875 C 25.84375 -66.28125 20.609375 -69.367188 16.640625 -73.484375 C 12.679688 -77.609375 9.867188 -82.207031 8.203125 -87.28125 C 6.535156 -92.351562 6.019531 -97.269531 6.65625 -102.03125 C 7.445312 -107.101562 9.425781 -111.9375 12.59375 -116.53125 C 15.769531 -121.132812 19.734375 -125.175781 24.484375 -128.65625 C 29.242188 -132.144531 34.398438 -134.523438 39.953125 -135.796875 C 43.128906 -136.585938 46.222656 -137.179688 49.234375 -137.578125 C 52.242188 -137.972656 55.253906 -138.171875 58.265625 -138.171875 C 63.972656 -138.171875 69.601562 -137.5 75.15625 -136.15625 C 80.707031 -134.8125 86.019531 -132.945312 91.09375 -130.5625 C 95.6875 -128.5 98.972656 -126.554688 100.953125 -124.734375 C 102.941406 -122.910156 103.65625 -120.726562 103.09375 -118.1875 C 102.539062 -115.65625 100.679688 -112.09375 97.515625 -107.5 C 95.128906 -104.007812 92.429688 -102.066406 89.421875 -101.671875 C 86.410156 -101.273438 83.160156 -101.707031 79.671875 -102.96875 C 76.179688 -104.238281 72.648438 -105.785156 69.078125 -107.609375 C 65.515625 -109.441406 62.03125 -110.988281 58.625 -112.25 C 55.21875 -113.519531 52.085938 -113.914062 49.234375 -113.4375 C 46.378906 -112.96875 43.84375 -110.988281 41.625 -107.5 C 39.5625 -104.007812 38.960938 -100.957031 39.828125 -98.34375 C 40.703125 -95.726562 42.488281 -93.46875 45.1875 -91.5625 C 47.882812 -89.65625 51.015625 -88.066406 54.578125 -86.796875 C 58.148438 -85.535156 61.597656 -84.425781 64.921875 -83.46875 C 68.253906 -82.519531 70.953125 -81.648438 73.015625 -80.859375 C 79.035156 -78.640625 84.898438 -75.941406 90.609375 -72.765625 C 96.316406 -69.597656 100.914062 -65.160156 104.40625 -59.453125 C 109.164062 -51.523438 110.867188 -44.113281 109.515625 -37.21875 C 108.171875 -30.320312 104.960938 -24.21875 99.890625 -18.90625 C 94.816406 -13.59375 88.789062 -9.351562 81.8125 -6.1875 Z M 81.8125 -6.1875 "/></g></g></g></g></g><g transform="matrix(1, 0, 0, 1, 577, 918)"><g clip-path="url(#96fc116c71)"><g fill="#F1EBDD" fill-opacity="1"><g transform="translate(0.876105, 60.01567)"><g><path d="M 19.859375 0.59375 C 17.597656 0.59375 15.429688 0.410156 13.359375 0.046875 C 11.296875 -0.304688 9.398438 -0.816406 7.671875 -1.484375 C 5.941406 -2.160156 4.421875 -2.976562 3.109375 -3.9375 L 5.546875 -10.203125 C 6.859375 -9.285156 8.269531 -8.519531 9.78125 -7.90625 C 11.289062 -7.289062 12.890625 -6.832031 14.578125 -6.53125 C 16.273438 -6.226562 18.035156 -6.078125 19.859375 -6.078125 C 22.890625 -6.078125 25.128906 -6.582031 26.578125 -7.59375 C 28.023438 -8.613281 28.75 -10 28.75 -11.75 C 28.75 -12.707031 28.53125 -13.492188 28.09375 -14.109375 C 27.65625 -14.722656 26.929688 -15.25 25.921875 -15.6875 C 24.910156 -16.125 23.585938 -16.503906 21.953125 -16.828125 L 15.21875 -18.140625 C 11.351562 -18.890625 8.503906 -20.25 6.671875 -22.21875 C 4.847656 -24.1875 3.9375 -26.722656 3.9375 -29.828125 C 3.9375 -32.410156 4.648438 -34.664062 6.078125 -36.59375 C 7.515625 -38.53125 9.492188 -40.023438 12.015625 -41.078125 C 14.546875 -42.128906 17.460938 -42.65625 20.765625 -42.65625 C 22.710938 -42.65625 24.578125 -42.472656 26.359375 -42.109375 C 28.148438 -41.753906 29.800781 -41.21875 31.3125 -40.5 C 32.832031 -39.789062 34.164062 -38.9375 35.3125 -37.9375 L 32.8125 -31.859375 C 31.144531 -33.285156 29.304688 -34.328125 27.296875 -34.984375 C 25.285156 -35.640625 23.085938 -35.96875 20.703125 -35.96875 C 18.867188 -35.96875 17.285156 -35.726562 15.953125 -35.25 C 14.617188 -34.78125 13.582031 -34.097656 12.84375 -33.203125 C 12.113281 -32.304688 11.75 -31.238281 11.75 -30 C 11.75 -28.570312 12.21875 -27.457031 13.15625 -26.65625 C 14.09375 -25.863281 15.734375 -25.226562 18.078125 -24.75 L 24.75 -23.4375 C 28.726562 -22.644531 31.691406 -21.332031 33.640625 -19.5 C 35.585938 -17.675781 36.5625 -15.253906 36.5625 -12.234375 C 36.5625 -9.679688 35.875 -7.441406 34.5 -5.515625 C 33.132812 -3.585938 31.195312 -2.085938 28.6875 -1.015625 C 26.1875 0.0546875 23.242188 0.59375 19.859375 0.59375 Z M 19.859375 0.59375 "/></g></g></g><g fill="#F1EBDD" fill-opacity="1"><g transform="translate(40.176591, 60.01567)"><g><path d="M 5.078125 0 L 5.078125 -42.0625 L 12.953125 -42.0625 L 12.953125 0 Z M 5.078125 0 "/></g></g></g><g fill="#F1EBDD" fill-opacity="1"><g transform="translate(58.425412, 60.01567)"><g><path d="M 5.078125 0 L 5.078125 -42.0625 L 11.328125 -42.0625 L 34.84375 -11.28125 L 33.890625 -11.28125 L 33.890625 -42.0625 L 41.34375 -42.0625 L 41.34375 0 L 34.90625 0 L 11.640625 -30.65625 L 12.46875 -30.65625 L 12.46875 0 Z M 5.078125 0 "/></g></g></g><g fill="#F1EBDD" fill-opacity="1"><g transform="translate(105.120815, 60.01567)"><g><path d="M 24.515625 0.59375 C 20.222656 0.59375 16.515625 -0.28125 13.390625 -2.03125 C 10.265625 -3.78125 7.859375 -6.273438 6.171875 -9.515625 C 4.484375 -12.753906 3.640625 -16.601562 3.640625 -21.0625 C 3.640625 -25.507812 4.484375 -29.34375 6.171875 -32.5625 C 7.859375 -35.789062 10.253906 -38.28125 13.359375 -40.03125 C 16.460938 -41.78125 20.179688 -42.65625 24.515625 -42.65625 C 27.378906 -42.65625 30.050781 -42.238281 32.53125 -41.40625 C 35.019531 -40.570312 37.101562 -39.335938 38.78125 -37.703125 L 36.15625 -31.5 C 34.363281 -33.007812 32.550781 -34.09375 30.71875 -34.75 C 28.894531 -35.40625 26.90625 -35.734375 24.75 -35.734375 C 20.65625 -35.734375 17.484375 -34.46875 15.234375 -31.9375 C 12.992188 -29.414062 11.875 -25.789062 11.875 -21.0625 C 11.875 -16.320312 12.984375 -12.679688 15.203125 -10.140625 C 17.429688 -7.597656 20.613281 -6.328125 24.75 -6.328125 C 26.90625 -6.328125 28.894531 -6.65625 30.71875 -7.3125 C 32.550781 -7.96875 34.363281 -9.050781 36.15625 -10.5625 L 38.78125 -4.359375 C 37.101562 -2.765625 35.019531 -1.539062 32.53125 -0.6875 C 30.050781 0.164062 27.378906 0.59375 24.515625 0.59375 Z M 24.515625 0.59375 "/></g></g></g><g fill="#F1EBDD" fill-opacity="1"><g transform="translate(146.866382, 60.01567)"><g><path d="M 5.078125 0 L 5.078125 -42.0625 L 33.53125 -42.0625 L 33.53125 -35.671875 L 12.703125 -35.671875 L 12.703125 -24.515625 L 32.21875 -24.515625 L 32.21875 -18.140625 L 12.703125 -18.140625 L 12.703125 -6.390625 L 33.53125 -6.390625 L 33.53125 0 Z M 5.078125 0 "/></g></g></g><g fill="#F1EBDD" fill-opacity="1"><g transform="translate(184.318138, 60.01567)"><g/></g></g><g fill="#F1EBDD" fill-opacity="1"><g transform="translate(201.433855, 60.01567)"><g><path d="M 4.59375 0 L 4.59375 -5.734375 L 18.4375 -20.21875 C 19.664062 -21.570312 20.644531 -22.796875 21.375 -23.890625 C 22.113281 -24.984375 22.648438 -26.023438 22.984375 -27.015625 C 23.328125 -28.015625 23.5 -29.03125 23.5 -30.0625 C 23.5 -32.007812 22.863281 -33.5 21.59375 -34.53125 C 20.320312 -35.570312 18.515625 -36.09375 16.171875 -36.09375 C 14.335938 -36.09375 12.515625 -35.742188 10.703125 -35.046875 C 8.898438 -34.347656 7.179688 -33.265625 5.546875 -31.796875 L 2.859375 -37.640625 C 4.609375 -39.191406 6.742188 -40.414062 9.265625 -41.3125 C 11.796875 -42.207031 14.414062 -42.65625 17.125 -42.65625 C 20.101562 -42.65625 22.632812 -42.1875 24.71875 -41.25 C 26.8125 -40.3125 28.40625 -38.945312 29.5 -37.15625 C 30.59375 -35.375 31.140625 -33.226562 31.140625 -30.71875 C 31.140625 -29.488281 30.988281 -28.265625 30.6875 -27.046875 C 30.394531 -25.835938 29.9375 -24.644531 29.3125 -23.46875 C 28.695312 -22.300781 27.929688 -21.109375 27.015625 -19.890625 C 26.109375 -18.679688 25 -17.398438 23.6875 -16.046875 L 13.296875 -5.25 L 13.296875 -6.5 L 32.75 -6.5 L 32.75 0 Z M 4.59375 0 "/></g></g></g><g fill="#F1EBDD" fill-opacity="1"><g transform="translate(237.51396, 60.01567)"><g><path d="M 17.890625 0.59375 C 14.554688 0.59375 11.742188 -0.238281 9.453125 -1.90625 C 7.171875 -3.582031 5.441406 -6.03125 4.265625 -9.25 C 3.085938 -12.46875 2.5 -16.425781 2.5 -21.125 C 2.5 -25.8125 3.078125 -29.742188 4.234375 -32.921875 C 5.390625 -36.109375 7.117188 -38.523438 9.421875 -40.171875 C 11.734375 -41.828125 14.554688 -42.65625 17.890625 -42.65625 C 21.273438 -42.65625 24.109375 -41.835938 26.390625 -40.203125 C 28.679688 -38.578125 30.398438 -36.160156 31.546875 -32.953125 C 32.703125 -29.753906 33.28125 -25.828125 33.28125 -21.171875 C 33.28125 -16.484375 32.691406 -12.523438 31.515625 -9.296875 C 30.347656 -6.078125 28.628906 -3.625 26.359375 -1.9375 C 24.097656 -0.25 21.273438 0.59375 17.890625 0.59375 Z M 17.890625 -5.84375 C 20.554688 -5.84375 22.535156 -7.078125 23.828125 -9.546875 C 25.117188 -12.015625 25.765625 -15.875 25.765625 -21.125 C 25.765625 -26.375 25.128906 -30.203125 23.859375 -32.609375 C 22.585938 -35.015625 20.597656 -36.21875 17.890625 -36.21875 C 15.234375 -36.21875 13.253906 -35.015625 11.953125 -32.609375 C 10.660156 -30.203125 10.015625 -26.375 10.015625 -21.125 C 10.015625 -15.875 10.660156 -12.015625 11.953125 -9.546875 C 13.253906 -7.078125 15.234375 -5.84375 17.890625 -5.84375 Z M 17.890625 -5.84375 "/></g></g></g><g fill="#F1EBDD" fill-opacity="1"><g transform="translate(273.594065, 60.01567)"><g><path d="M 5.84375 0 L 5.84375 -6.5 L 15.984375 -6.5 L 15.984375 -35.609375 L 19.8125 -35.375 L 8.109375 -28.28125 L 4.953125 -34.0625 L 18.1875 -42.0625 L 23.75 -42.0625 L 23.75 -6.5 L 33.171875 -6.5 L 33.171875 0 Z M 5.84375 0 "/></g></g></g><g fill="#F1EBDD" fill-opacity="1"><g transform="translate(309.674169, 60.01567)"><g><path d="M 17.0625 0.59375 C 15.15625 0.59375 13.296875 0.40625 11.484375 0.03125 C 9.671875 -0.34375 7.976562 -0.890625 6.40625 -1.609375 C 4.84375 -2.328125 3.484375 -3.179688 2.328125 -4.171875 L 4.890625 -10.140625 C 6.765625 -8.710938 8.691406 -7.660156 10.671875 -6.984375 C 12.660156 -6.304688 14.710938 -5.96875 16.828125 -5.96875 C 18.492188 -5.96875 19.921875 -6.195312 21.109375 -6.65625 C 22.304688 -7.113281 23.234375 -7.796875 23.890625 -8.703125 C 24.546875 -9.617188 24.875 -10.753906 24.875 -12.109375 C 24.875 -14.097656 24.207031 -15.578125 22.875 -16.546875 C 21.539062 -17.523438 19.601562 -18.015625 17.0625 -18.015625 L 10.140625 -18.015625 L 10.140625 -24.453125 L 16.21875 -24.453125 C 17.738281 -24.453125 19.046875 -24.691406 20.140625 -25.171875 C 21.234375 -25.648438 22.097656 -26.347656 22.734375 -27.265625 C 23.367188 -28.179688 23.6875 -29.296875 23.6875 -30.609375 C 23.6875 -32.429688 23.066406 -33.800781 21.828125 -34.71875 C 20.597656 -35.632812 18.867188 -36.09375 16.640625 -36.09375 C 14.617188 -36.09375 12.679688 -35.753906 10.828125 -35.078125 C 8.972656 -34.398438 7.234375 -33.304688 5.609375 -31.796875 L 3.046875 -37.640625 C 4.710938 -39.273438 6.816406 -40.519531 9.359375 -41.375 C 11.910156 -42.226562 14.554688 -42.65625 17.296875 -42.65625 C 20.160156 -42.65625 22.632812 -42.21875 24.71875 -41.34375 C 26.8125 -40.46875 28.40625 -39.203125 29.5 -37.546875 C 30.59375 -35.898438 31.140625 -33.90625 31.140625 -31.5625 C 31.140625 -29.132812 30.484375 -27.023438 29.171875 -25.234375 C 27.859375 -23.441406 26.03125 -22.207031 23.6875 -21.53125 L 23.6875 -21.890625 C 25.476562 -21.578125 27.019531 -20.953125 28.3125 -20.015625 C 29.601562 -19.078125 30.59375 -17.898438 31.28125 -16.484375 C 31.976562 -15.078125 32.328125 -13.421875 32.328125 -11.515625 C 32.328125 -9.003906 31.703125 -6.84375 30.453125 -5.03125 C 29.203125 -3.226562 27.441406 -1.835938 25.171875 -0.859375 C 22.910156 0.109375 20.207031 0.59375 17.0625 0.59375 Z M 17.0625 0.59375 "/></g></g></g></g></g></svg>