<svg xmlns="http://www.w3.org/2000/svg" xmlns:xlink="http://www.w3.org/1999/xlink" zoomAndPan="magnify" viewBox="186 606 1104 237" preserveAspectRatio="xMidYMid meet" version="1.0"><defs><g/></defs><g fill="#F1EBDD" fill-opacity="1"><g transform="translate(210.504569, 817.69959)"><g><path d="M 121.515625 -1.1875 C 117.398438 -1.34375 113.238281 -1.378906 109.03125 -1.296875 C 104.832031 -1.222656 100.59375 -1.1875 96.3125 -1.1875 C 95.363281 -1.1875 94.609375 -2.847656 94.046875 -6.171875 C 93.492188 -9.503906 93.140625 -13.863281 92.984375 -19.25 C 92.828125 -24.644531 92.75 -30.472656 92.75 -36.734375 C 92.75 -43.003906 92.828125 -49.070312 92.984375 -54.9375 C 93.140625 -60.800781 93.253906 -65.875 93.328125 -70.15625 C 93.410156 -74.4375 93.453125 -77.210938 93.453125 -78.484375 C 93.296875 -87.359375 91.910156 -94.09375 89.296875 -98.6875 C 86.679688 -103.289062 83.429688 -106.460938 79.546875 -108.203125 C 75.660156 -109.953125 71.816406 -110.828125 68.015625 -110.828125 L 67.53125 -110.828125 C 58.5 -110.828125 51.164062 -107.773438 45.53125 -101.671875 C 39.90625 -95.566406 36.9375 -87.597656 36.625 -77.765625 C 36.46875 -71.421875 36.390625 -65.078125 36.390625 -58.734375 C 36.390625 -52.398438 36.390625 -46.0625 36.390625 -39.71875 C 36.546875 -34.800781 36.976562 -29.367188 37.6875 -23.421875 C 38.40625 -17.472656 38.289062 -12.046875 37.34375 -7.140625 C 36.707031 -3.492188 35.238281 -1.550781 32.9375 -1.3125 C 30.632812 -1.070312 28.054688 -0.875 25.203125 -0.71875 C 23.304688 -0.550781 20.8125 -0.347656 17.71875 -0.109375 C 14.625 0.117188 11.609375 0 8.671875 -0.46875 C 5.742188 -0.945312 3.566406 -2.140625 2.140625 -4.046875 C 0.398438 -6.578125 -0.230469 -9.625 0.234375 -13.1875 C 0.710938 -16.757812 1.03125 -19.894531 1.1875 -22.59375 C 1.820312 -31.3125 2.296875 -40.191406 2.609375 -49.234375 C 3.085938 -66.347656 2.613281 -83.390625 1.1875 -100.359375 C 0.875 -103.679688 0.632812 -107.5625 0.46875 -112 C 0.3125 -116.445312 0.671875 -120.691406 1.546875 -124.734375 C 2.421875 -128.773438 4.164062 -131.941406 6.78125 -134.234375 C 9.394531 -136.535156 13.316406 -137.210938 18.546875 -136.265625 C 22.828125 -135.472656 27.03125 -134.484375 31.15625 -133.296875 C 35.28125 -132.109375 39.476562 -131.117188 43.75 -130.328125 C 44.070312 -130.328125 44.429688 -130.328125 44.828125 -130.328125 C 45.222656 -130.328125 45.5 -130.328125 45.65625 -130.328125 C 48.664062 -130.328125 51.675781 -130.921875 54.6875 -132.109375 C 57.707031 -133.296875 60.800781 -134.519531 63.96875 -135.78125 C 67.144531 -137.050781 70.316406 -137.769531 73.484375 -137.9375 C 82.679688 -138.726562 91.398438 -137.140625 99.640625 -133.171875 C 106.773438 -129.847656 112.285156 -125.488281 116.171875 -120.09375 C 120.054688 -114.707031 122.867188 -108.765625 124.609375 -102.265625 C 126.359375 -95.765625 127.46875 -89.023438 127.9375 -82.046875 C 128.414062 -75.066406 128.8125 -68.171875 129.125 -61.359375 C 129.125 -59.929688 129.28125 -56.992188 129.59375 -52.546875 C 129.914062 -48.109375 130.117188 -42.992188 130.203125 -37.203125 C 130.285156 -31.421875 130.164062 -25.796875 129.84375 -20.328125 C 129.53125 -14.859375 128.773438 -10.300781 127.578125 -6.65625 C 126.390625 -3.007812 124.609375 -1.1875 122.234375 -1.1875 C 122.078125 -1.1875 121.957031 -1.1875 121.875 -1.1875 C 121.800781 -1.1875 121.679688 -1.1875 121.515625 -1.1875 Z M 121.515625 -1.1875 "/></g></g></g><g fill="#F1EBDD" fill-opacity="1"><g transform="translate(343.205898, 817.69959)"><g><path d="M 116.296875 -5.953125 C 115.023438 -4.359375 113.039062 -3.484375 110.34375 -3.328125 C 107.8125 -3.328125 105.351562 -3.84375 102.96875 -4.875 C 100.59375 -5.90625 98.253906 -6.9375 95.953125 -7.96875 C 93.660156 -9 91.164062 -9.515625 88.46875 -9.515625 C 86.71875 -9.515625 84.972656 -9.394531 83.234375 -9.15625 C 81.492188 -8.914062 79.910156 -8.640625 78.484375 -8.328125 L 77.296875 -8.078125 C 72.691406 -7.285156 68.207031 -6.253906 63.84375 -4.984375 C 59.488281 -3.722656 55.410156 -2.457031 51.609375 -1.1875 C 49.859375 -0.707031 48.070312 -0.3125 46.25 0 C 44.425781 0.3125 42.566406 0.46875 40.671875 0.46875 C 29.097656 0.46875 19.347656 -4.125 11.421875 -13.3125 C 2.378906 -23.625 -1.1875 -36.3125 0.71875 -51.375 C 1.507812 -57.394531 3.609375 -62.78125 7.015625 -67.53125 C 10.421875 -72.289062 14.738281 -75.941406 19.96875 -78.484375 C 22.664062 -79.742188 25.519531 -80.648438 28.53125 -81.203125 C 31.550781 -81.765625 34.644531 -82.285156 37.8125 -82.765625 C 38.601562 -82.765625 39.316406 -82.800781 39.953125 -82.875 C 40.585938 -82.957031 41.222656 -83.078125 41.859375 -83.234375 L 73.015625 -87.515625 C 77.128906 -88.148438 79.703125 -89.378906 80.734375 -91.203125 C 81.765625 -93.023438 82.359375 -94.488281 82.515625 -95.59375 C 82.835938 -98.289062 82.003906 -100.75 80.015625 -102.96875 C 78.035156 -105.1875 75.703125 -106.691406 73.015625 -107.484375 C 68.097656 -109.390625 63.019531 -110.34375 57.78125 -110.34375 L 57.078125 -110.34375 C 52.160156 -110.1875 47.484375 -109.472656 43.046875 -108.203125 C 38.609375 -106.929688 34.328125 -105.425781 30.203125 -103.6875 C 28.929688 -103.050781 27.425781 -102.734375 25.6875 -102.734375 C 22.195312 -102.734375 18.742188 -103.878906 15.328125 -106.171875 C 11.921875 -108.472656 9.503906 -111.210938 8.078125 -114.390625 C 7.453125 -115.660156 7.175781 -116.726562 7.25 -117.59375 C 7.332031 -118.46875 7.453125 -119.144531 7.609375 -119.625 C 8.554688 -121.6875 10.414062 -123.546875 13.1875 -125.203125 C 15.96875 -126.867188 18.90625 -128.296875 22 -129.484375 C 25.09375 -130.671875 27.671875 -131.582031 29.734375 -132.21875 C 41.140625 -135.863281 52.628906 -137.6875 64.203125 -137.6875 C 65.316406 -137.6875 66.425781 -137.6875 67.53125 -137.6875 C 68.644531 -137.6875 69.757812 -137.609375 70.875 -137.453125 C 76.414062 -137.140625 82.554688 -136.070312 89.296875 -134.25 C 96.035156 -132.425781 101.785156 -128.976562 106.546875 -123.90625 C 112.085938 -117.875 115.414062 -111.847656 116.53125 -105.828125 C 117.800781 -99.003906 118.234375 -91.90625 117.828125 -84.53125 C 117.429688 -77.164062 117.316406 -69.992188 117.484375 -63.015625 C 117.484375 -55.878906 117.484375 -48.703125 117.484375 -41.484375 C 117.484375 -34.273438 117.5625 -27.1875 117.71875 -20.21875 C 117.71875 -17.832031 117.835938 -15.289062 118.078125 -12.59375 C 118.316406 -9.90625 117.722656 -7.691406 116.296875 -5.953125 Z M 81.8125 -46.84375 C 83.070312 -49.382812 83.460938 -51.523438 82.984375 -53.265625 C 82.515625 -55.015625 82.039062 -56.207031 81.5625 -56.84375 C 80.9375 -57.789062 79.945312 -58.695312 78.59375 -59.5625 C 77.25 -60.4375 75.390625 -60.957031 73.015625 -61.125 L 71.109375 -61.359375 C 69.679688 -61.515625 68.210938 -61.59375 66.703125 -61.59375 C 65.203125 -61.59375 63.578125 -61.59375 61.828125 -61.59375 C 59.128906 -61.59375 55.878906 -61.3125 52.078125 -60.75 C 48.273438 -60.195312 44.628906 -58.734375 41.140625 -56.359375 C 38.765625 -54.460938 37.257812 -52.484375 36.625 -50.421875 C 35.988281 -48.671875 35.910156 -46.445312 36.390625 -43.75 C 37.492188 -38.84375 39.628906 -35.039062 42.796875 -32.34375 C 45.972656 -29.644531 49.78125 -28.296875 54.21875 -28.296875 C 59.769531 -28.296875 65.238281 -30.117188 70.625 -33.765625 C 76.019531 -37.410156 79.75 -41.769531 81.8125 -46.84375 Z M 81.8125 -46.84375 "/></g></g></g><g fill="#F1EBDD" fill-opacity="1"><g transform="translate(463.77855, 817.69959)"><g><path d="M 9.03125 -149.828125 C 5.550781 -152.046875 3.015625 -155.175781 1.421875 -159.21875 C -0.160156 -163.257812 -0.238281 -167.660156 1.1875 -172.421875 C 3.882812 -181.765625 10.226562 -186.597656 20.21875 -186.921875 L 20.6875 -186.921875 C 25.601562 -186.921875 29.722656 -185.613281 33.046875 -183 C 36.378906 -180.382812 38.601562 -176.773438 39.71875 -172.171875 C 41.144531 -166.460938 40.585938 -161.226562 38.046875 -156.46875 C 35.515625 -151.71875 31.234375 -148.628906 25.203125 -147.203125 C 22.191406 -146.566406 19.296875 -146.488281 16.515625 -146.96875 C 13.742188 -147.445312 11.25 -148.398438 9.03125 -149.828125 Z M 5.703125 -126.046875 C 7.921875 -127.472656 11.09375 -128.101562 15.21875 -127.9375 C 17.59375 -127.9375 20.207031 -128.015625 23.0625 -128.171875 C 25.914062 -128.335938 28.570312 -128.0625 31.03125 -127.34375 C 33.488281 -126.632812 35.113281 -125.007812 35.90625 -122.46875 C 37.332031 -118.507812 37.804688 -113.710938 37.328125 -108.078125 C 36.859375 -102.453125 36.625 -97.578125 36.625 -93.453125 C 36.78125 -83.785156 36.859375 -74.195312 36.859375 -64.6875 C 36.859375 -55.175781 36.9375 -45.582031 37.09375 -35.90625 C 37.09375 -34.320312 37.289062 -31.664062 37.6875 -27.9375 C 38.082031 -24.21875 38.320312 -20.21875 38.40625 -15.9375 C 38.488281 -11.65625 38.050781 -8.003906 37.09375 -4.984375 C 36.144531 -1.972656 34.242188 -0.390625 31.390625 -0.234375 C 27.742188 -0.078125 23.9375 0.0351562 19.96875 0.109375 C 16.007812 0.191406 12.207031 0 8.5625 -0.46875 C 6.019531 -0.789062 4.273438 -2.179688 3.328125 -4.640625 C 2.378906 -7.097656 1.863281 -10.066406 1.78125 -13.546875 C 1.707031 -17.035156 1.828125 -20.363281 2.140625 -23.53125 C 2.453125 -26.707031 2.609375 -29.171875 2.609375 -30.921875 C 2.453125 -37.421875 2.332031 -43.957031 2.25 -50.53125 C 2.175781 -57.113281 2.140625 -63.65625 2.140625 -70.15625 C 1.984375 -75.707031 1.90625 -81.253906 1.90625 -86.796875 C 1.90625 -92.347656 1.828125 -97.816406 1.671875 -103.203125 C 1.671875 -107.804688 1.585938 -112.25 1.421875 -116.53125 C 1.265625 -120.8125 2.691406 -123.984375 5.703125 -126.046875 Z M 5.703125 -126.046875 "/></g></g></g><g fill="#F1EBDD" fill-opacity="1"><g transform="translate(506.822842, 817.69959)"><g><path d="M 35.4375 -3.328125 C 34.320312 -1.898438 32.734375 -1.109375 30.671875 -0.953125 C 28.617188 -0.796875 26.476562 -0.554688 24.25 -0.234375 C 22.195312 -0.078125 19.78125 0.078125 17 0.234375 C 14.226562 0.390625 11.613281 0.113281 9.15625 -0.59375 C 6.695312 -1.3125 4.832031 -2.78125 3.5625 -5 C 1.664062 -8.476562 0.554688 -12.316406 0.234375 -16.515625 C -0.0742188 -20.722656 0 -25.003906 0.46875 -29.359375 C 0.945312 -33.722656 1.1875 -37.8125 1.1875 -41.625 C 1.34375 -49.070312 1.460938 -56.476562 1.546875 -63.84375 C 1.628906 -71.21875 1.75 -78.632812 1.90625 -86.09375 C 2.0625 -100.832031 2.097656 -115.613281 2.015625 -130.4375 C 1.941406 -145.257812 1.742188 -160.046875 1.421875 -174.796875 C 1.421875 -178.910156 2.289062 -181.878906 4.03125 -183.703125 C 5.78125 -185.523438 8.082031 -186.59375 10.9375 -186.90625 C 13.789062 -187.226562 16.878906 -187.148438 20.203125 -186.671875 C 23.535156 -186.203125 26.710938 -185.8125 29.734375 -185.5 C 33.054688 -185.175781 35.234375 -183.390625 36.265625 -180.140625 C 37.296875 -176.890625 37.769531 -173.398438 37.6875 -169.671875 C 37.613281 -165.953125 37.5 -162.984375 37.34375 -160.765625 C 37.019531 -153.472656 36.816406 -146.097656 36.734375 -138.640625 C 36.660156 -131.191406 36.625 -123.742188 36.625 -116.296875 C 36.625 -98.222656 36.625 -80.144531 36.625 -62.0625 C 36.625 -43.988281 36.625 -25.914062 36.625 -7.84375 C 36.625 -5.945312 36.226562 -4.441406 35.4375 -3.328125 Z M 35.4375 -3.328125 "/></g></g></g><g fill="#F1EBDD" fill-opacity="1"><g transform="translate(547.013345, 817.69959)"><g><path d="M 81.8125 -6.1875 C 73.09375 -2.0625 64.289062 0 55.40625 0 C 50.332031 0 44.742188 -0.710938 38.640625 -2.140625 C 32.535156 -3.566406 26.585938 -5.390625 20.796875 -7.609375 C 15.015625 -9.828125 9.90625 -12.207031 5.46875 -14.75 C 2.132812 -16.644531 0.390625 -18.582031 0.234375 -20.5625 C 0.078125 -22.550781 0.789062 -24.613281 2.375 -26.75 C 3.957031 -28.894531 5.460938 -31.234375 6.890625 -33.765625 C 7.367188 -34.554688 7.882812 -35.304688 8.4375 -36.015625 C 9 -36.734375 9.59375 -37.332031 10.21875 -37.8125 C 11.96875 -39.082031 13.789062 -39.476562 15.6875 -39 C 17.59375 -38.519531 19.457031 -37.722656 21.28125 -36.609375 C 23.101562 -35.503906 24.726562 -34.554688 26.15625 -33.765625 C 31.070312 -31.078125 36.460938 -29.097656 42.328125 -27.828125 C 48.191406 -26.554688 53.898438 -26.078125 59.453125 -26.390625 C 63.578125 -26.710938 67.378906 -27.625 70.859375 -29.125 C 74.347656 -30.632812 76.410156 -32.738281 77.046875 -35.4375 C 77.679688 -38.132812 75.78125 -41.304688 71.34375 -44.953125 C 65.476562 -49.546875 59.253906 -53.347656 52.671875 -56.359375 C 46.097656 -59.367188 39.320312 -61.984375 32.34375 -64.203125 C 25.84375 -66.265625 20.609375 -69.359375 16.640625 -73.484375 C 12.679688 -77.609375 9.867188 -82.207031 8.203125 -87.28125 C 6.535156 -92.351562 6.019531 -97.265625 6.65625 -102.015625 C 7.445312 -107.085938 9.425781 -111.921875 12.59375 -116.515625 C 15.769531 -121.117188 19.734375 -125.164062 24.484375 -128.65625 C 29.242188 -132.144531 34.398438 -134.523438 39.953125 -135.796875 C 43.117188 -136.585938 46.207031 -137.179688 49.21875 -137.578125 C 52.238281 -137.972656 55.253906 -138.171875 58.265625 -138.171875 C 63.972656 -138.171875 69.597656 -137.492188 75.140625 -136.140625 C 80.691406 -134.796875 86.003906 -132.9375 91.078125 -130.5625 C 95.679688 -128.5 98.972656 -126.554688 100.953125 -124.734375 C 102.929688 -122.910156 103.644531 -120.726562 103.09375 -118.1875 C 102.539062 -115.65625 100.675781 -112.085938 97.5 -107.484375 C 95.125 -104.003906 92.429688 -102.066406 89.421875 -101.671875 C 86.410156 -101.273438 83.160156 -101.707031 79.671875 -102.96875 C 76.179688 -104.238281 72.648438 -105.785156 69.078125 -107.609375 C 65.515625 -109.429688 62.03125 -110.976562 58.625 -112.25 C 55.21875 -113.519531 52.085938 -113.914062 49.234375 -113.4375 C 46.378906 -112.957031 43.84375 -110.972656 41.625 -107.484375 C 39.5625 -104.003906 38.960938 -100.953125 39.828125 -98.328125 C 40.703125 -95.710938 42.488281 -93.453125 45.1875 -91.546875 C 47.882812 -89.648438 51.015625 -88.066406 54.578125 -86.796875 C 58.140625 -85.535156 61.585938 -84.425781 64.921875 -83.46875 C 68.253906 -82.519531 70.953125 -81.648438 73.015625 -80.859375 C 79.035156 -78.640625 84.898438 -75.941406 90.609375 -72.765625 C 96.316406 -69.597656 100.914062 -65.160156 104.40625 -59.453125 C 109.15625 -51.523438 110.851562 -44.113281 109.5 -37.21875 C 108.15625 -30.320312 104.945312 -24.21875 99.875 -18.90625 C 94.800781 -13.59375 88.78125 -9.351562 81.8125 -6.1875 Z M 81.8125 -6.1875 "/></g></g></g><g fill="#F1EBDD" fill-opacity="1"><g transform="translate(659.262434, 817.69959)"><g><path d="M 35.4375 -3.328125 C 34.320312 -1.898438 32.734375 -1.109375 30.671875 -0.953125 C 28.617188 -0.796875 26.476562 -0.554688 24.25 -0.234375 C 22.195312 -0.078125 19.78125 0.078125 17 0.234375 C 14.226562 0.390625 11.613281 0.113281 9.15625 -0.59375 C 6.695312 -1.3125 4.832031 -2.78125 3.5625 -5 C 1.664062 -8.476562 0.554688 -12.316406 0.234375 -16.515625 C -0.0742188 -20.722656 0 -25.003906 0.46875 -29.359375 C 0.945312 -33.722656 1.1875 -37.8125 1.1875 -41.625 C 1.34375 -49.070312 1.460938 -56.476562 1.546875 -63.84375 C 1.628906 -71.21875 1.75 -78.632812 1.90625 -86.09375 C 2.0625 -100.832031 2.097656 -115.613281 2.015625 -130.4375 C 1.941406 -145.257812 1.742188 -160.046875 1.421875 -174.796875 C 1.421875 -178.910156 2.289062 -181.878906 4.03125 -183.703125 C 5.78125 -185.523438 8.082031 -186.59375 10.9375 -186.90625 C 13.789062 -187.226562 16.878906 -187.148438 20.203125 -186.671875 C 23.535156 -186.203125 26.710938 -185.8125 29.734375 -185.5 C 33.054688 -185.175781 35.234375 -183.390625 36.265625 -180.140625 C 37.296875 -176.890625 37.769531 -173.398438 37.6875 -169.671875 C 37.613281 -165.953125 37.5 -162.984375 37.34375 -160.765625 C 37.019531 -153.472656 36.816406 -146.097656 36.734375 -138.640625 C 36.660156 -131.191406 36.625 -123.742188 36.625 -116.296875 C 36.625 -98.222656 36.625 -80.144531 36.625 -62.0625 C 36.625 -43.988281 36.625 -25.914062 36.625 -7.84375 C 36.625 -5.945312 36.226562 -4.441406 35.4375 -3.328125 Z M 35.4375 -3.328125 "/></g></g></g><g fill="#F1EBDD" fill-opacity="1"><g transform="translate(699.452982, 817.69959)"><g><path d="M 9.03125 -149.828125 C 5.550781 -152.046875 3.015625 -155.175781 1.421875 -159.21875 C -0.160156 -163.257812 -0.238281 -167.660156 1.1875 -172.421875 C 3.882812 -181.765625 10.226562 -186.597656 20.21875 -186.921875 L 20.6875 -186.921875 C 25.601562 -186.921875 29.722656 -185.613281 33.046875 -183 C 36.378906 -180.382812 38.601562 -176.773438 39.71875 -172.171875 C 41.144531 -166.460938 40.585938 -161.226562 38.046875 -156.46875 C 35.515625 -151.71875 31.234375 -148.628906 25.203125 -147.203125 C 22.191406 -146.566406 19.296875 -146.488281 16.515625 -146.96875 C 13.742188 -147.445312 11.25 -148.398438 9.03125 -149.828125 Z M 5.703125 -126.046875 C 7.921875 -127.472656 11.09375 -128.101562 15.21875 -127.9375 C 17.59375 -127.9375 20.207031 -128.015625 23.0625 -128.171875 C 25.914062 -128.335938 28.570312 -128.0625 31.03125 -127.34375 C 33.488281 -126.632812 35.113281 -125.007812 35.90625 -122.46875 C 37.332031 -118.507812 37.804688 -113.710938 37.328125 -108.078125 C 36.859375 -102.453125 36.625 -97.578125 36.625 -93.453125 C 36.78125 -83.785156 36.859375 -74.195312 36.859375 -64.6875 C 36.859375 -55.175781 36.9375 -45.582031 37.09375 -35.90625 C 37.09375 -34.320312 37.289062 -31.664062 37.6875 -27.9375 C 38.082031 -24.21875 38.320312 -20.21875 38.40625 -15.9375 C 38.488281 -11.65625 38.050781 -8.003906 37.09375 -4.984375 C 36.144531 -1.972656 34.242188 -0.390625 31.390625 -0.234375 C 27.742188 -0.078125 23.9375 0.0351562 19.96875 0.109375 C 16.007812 0.191406 12.207031 0 8.5625 -0.46875 C 6.019531 -0.789062 4.273438 -2.179688 3.328125 -4.640625 C 2.378906 -7.097656 1.863281 -10.066406 1.78125 -13.546875 C 1.707031 -17.035156 1.828125 -20.363281 2.140625 -23.53125 C 2.453125 -26.707031 2.609375 -29.171875 2.609375 -30.921875 C 2.453125 -37.421875 2.332031 -43.957031 2.25 -50.53125 C 2.175781 -57.113281 2.140625 -63.65625 2.140625 -70.15625 C 1.984375 -75.707031 1.90625 -81.253906 1.90625 -86.796875 C 1.90625 -92.347656 1.828125 -97.816406 1.671875 -103.203125 C 1.671875 -107.804688 1.585938 -112.25 1.421875 -116.53125 C 1.265625 -120.8125 2.691406 -123.984375 5.703125 -126.046875 Z M 5.703125 -126.046875 "/></g></g></g><g fill="#F1EBDD" fill-opacity="1"><g transform="translate(742.497229, 817.69959)"><g><path d="M 121.515625 -1.1875 C 117.398438 -1.34375 113.238281 -1.378906 109.03125 -1.296875 C 104.832031 -1.222656 100.59375 -1.1875 96.3125 -1.1875 C 95.363281 -1.1875 94.609375 -2.847656 94.046875 -6.171875 C 93.492188 -9.503906 93.140625 -13.863281 92.984375 -19.25 C 92.828125 -24.644531 92.75 -30.472656 92.75 -36.734375 C 92.75 -43.003906 92.828125 -49.070312 92.984375 -54.9375 C 93.140625 -60.800781 93.253906 -65.875 93.328125 -70.15625 C 93.410156 -74.4375 93.453125 -77.210938 93.453125 -78.484375 C 93.296875 -87.359375 91.910156 -94.09375 89.296875 -98.6875 C 86.679688 -103.289062 83.429688 -106.460938 79.546875 -108.203125 C 75.660156 -109.953125 71.816406 -110.828125 68.015625 -110.828125 L 67.53125 -110.828125 C 58.5 -110.828125 51.164062 -107.773438 45.53125 -101.671875 C 39.90625 -95.566406 36.9375 -87.597656 36.625 -77.765625 C 36.46875 -71.421875 36.390625 -65.078125 36.390625 -58.734375 C 36.390625 -52.398438 36.390625 -46.0625 36.390625 -39.71875 C 36.546875 -34.800781 36.976562 -29.367188 37.6875 -23.421875 C 38.40625 -17.472656 38.289062 -12.046875 37.34375 -7.140625 C 36.707031 -3.492188 35.238281 -1.550781 32.9375 -1.3125 C 30.632812 -1.070312 28.054688 -0.875 25.203125 -0.71875 C 23.304688 -0.550781 20.8125 -0.347656 17.71875 -0.109375 C 14.625 0.117188 11.609375 0 8.671875 -0.46875 C 5.742188 -0.945312 3.566406 -2.140625 2.140625 -4.046875 C 0.398438 -6.578125 -0.230469 -9.625 0.234375 -13.1875 C 0.710938 -16.757812 1.03125 -19.894531 1.1875 -22.59375 C 1.820312 -31.3125 2.296875 -40.191406 2.609375 -49.234375 C 3.085938 -66.347656 2.613281 -83.390625 1.1875 -100.359375 C 0.875 -103.679688 0.632812 -107.5625 0.46875 -112 C 0.3125 -116.445312 0.671875 -120.691406 1.546875 -124.734375 C 2.421875 -128.773438 4.164062 -131.941406 6.78125 -134.234375 C 9.394531 -136.535156 13.316406 -137.210938 18.546875 -136.265625 C 22.828125 -135.472656 27.03125 -134.484375 31.15625 -133.296875 C 35.28125 -132.109375 39.476562 -131.117188 43.75 -130.328125 C 44.070312 -130.328125 44.429688 -130.328125 44.828125 -130.328125 C 45.222656 -130.328125 45.5 -130.328125 45.65625 -130.328125 C 48.664062 -130.328125 51.675781 -130.921875 54.6875 -132.109375 C 57.707031 -133.296875 60.800781 -134.519531 63.96875 -135.78125 C 67.144531 -137.050781 70.316406 -137.769531 73.484375 -137.9375 C 82.679688 -138.726562 91.398438 -137.140625 99.640625 -133.171875 C 106.773438 -129.847656 112.285156 -125.488281 116.171875 -120.09375 C 120.054688 -114.707031 122.867188 -108.765625 124.609375 -102.265625 C 126.359375 -95.765625 127.46875 -89.023438 127.9375 -82.046875 C 128.414062 -75.066406 128.8125 -68.171875 129.125 -61.359375 C 129.125 -59.929688 129.28125 -56.992188 129.59375 -52.546875 C 129.914062 -48.109375 130.117188 -42.992188 130.203125 -37.203125 C 130.285156 -31.421875 130.164062 -25.796875 129.84375 -20.328125 C 129.53125 -14.859375 128.773438 -10.300781 127.578125 -6.65625 C 126.390625 -3.007812 124.609375 -1.1875 122.234375 -1.1875 C 122.078125 -1.1875 121.957031 -1.1875 121.875 -1.1875 C 121.800781 -1.1875 121.679688 -1.1875 121.515625 -1.1875 Z M 121.515625 -1.1875 "/></g></g></g><g fill="#F1EBDD" fill-opacity="1"><g transform="translate(875.198558, 817.69959)"><g><path d="M 9.75 -32.8125 C 4.675781 -42.007812 1.625 -51.363281 0.59375 -60.875 C -0.433594 -70.394531 0.234375 -79.550781 2.609375 -88.34375 C 4.992188 -97.144531 8.601562 -105.03125 13.4375 -112 C 18.269531 -118.976562 23.9375 -124.453125 30.4375 -128.421875 C 39.3125 -133.804688 49.222656 -136.5 60.171875 -136.5 C 62.390625 -136.5 65.203125 -136.023438 68.609375 -135.078125 C 72.015625 -134.128906 75.582031 -133.140625 79.3125 -132.109375 C 83.039062 -131.078125 86.609375 -130.476562 90.015625 -130.3125 C 93.421875 -130.15625 96.3125 -130.789062 98.6875 -132.21875 C 101.070312 -133.644531 102.578125 -136.34375 103.203125 -140.3125 C 104.003906 -146.019531 104.164062 -152.203125 103.6875 -158.859375 C 103.207031 -165.515625 102.8125 -171.773438 102.5 -177.640625 C 102.34375 -181.609375 103.132812 -184.144531 104.875 -185.25 C 106.613281 -186.363281 108.953125 -186.835938 111.890625 -186.671875 C 114.828125 -186.515625 117.800781 -186.359375 120.8125 -186.203125 C 123.664062 -186.203125 126.359375 -186.398438 128.890625 -186.796875 C 131.429688 -187.191406 133.492188 -186.992188 135.078125 -186.203125 C 136.660156 -185.410156 137.453125 -183.035156 137.453125 -179.078125 C 137.453125 -164.484375 137.453125 -149.894531 137.453125 -135.3125 C 137.453125 -120.726562 137.453125 -106.144531 137.453125 -91.5625 C 137.296875 -78.082031 137.613281 -64.5625 138.40625 -51 C 139.195312 -37.445312 138.957031 -23.9375 137.6875 -10.46875 C 137.375 -6.976562 136.265625 -4.71875 134.359375 -3.6875 C 132.460938 -2.65625 130.164062 -2.335938 127.46875 -2.734375 C 124.769531 -3.128906 121.992188 -3.800781 119.140625 -4.75 C 116.285156 -5.707031 113.671875 -6.34375 111.296875 -6.65625 C 105.429688 -7.445312 99.960938 -7.523438 94.890625 -6.890625 C 89.816406 -6.265625 84.503906 -4.835938 78.953125 -2.609375 C 70.078125 0.710938 60.882812 1.261719 51.375 -0.953125 C 42.644531 -2.859375 34.554688 -6.703125 27.109375 -12.484375 C 19.660156 -18.273438 13.875 -25.050781 9.75 -32.8125 Z M 69.921875 -108.921875 C 63.890625 -108.921875 58.21875 -106.976562 52.90625 -103.09375 C 47.601562 -99.207031 43.285156 -94.171875 39.953125 -87.984375 C 36.617188 -81.804688 34.953125 -75.226562 34.953125 -68.25 C 34.953125 -61.59375 36.578125 -55.289062 39.828125 -49.34375 C 43.078125 -43.394531 47.359375 -38.554688 52.671875 -34.828125 C 57.984375 -31.109375 63.648438 -29.171875 69.671875 -29.015625 L 70.625 -29.015625 C 78.71875 -29.015625 85.695312 -31.945312 91.5625 -37.8125 C 99.007812 -45.582031 102.734375 -55.804688 102.734375 -68.484375 C 102.734375 -80.222656 99.71875 -89.859375 93.6875 -97.390625 C 87.664062 -104.921875 79.898438 -108.765625 70.390625 -108.921875 Z M 69.921875 -108.921875 "/></g></g></g><g fill="#F1EBDD" fill-opacity="1"><g transform="translate(1016.461346, 817.69959)"><g><path d="M 133.40625 -60.40625 C 131.507812 -58.820312 128.695312 -57.75 124.96875 -57.1875 C 121.238281 -56.632812 117.273438 -56.359375 113.078125 -56.359375 C 108.878906 -56.359375 104.957031 -56.4375 101.3125 -56.59375 C 97.664062 -56.757812 94.890625 -56.84375 92.984375 -56.84375 C 84.742188 -56.675781 76.578125 -56.550781 68.484375 -56.46875 C 60.398438 -56.394531 52.238281 -56.359375 44 -56.359375 C 41.457031 -56.359375 39.828125 -55.566406 39.109375 -53.984375 C 38.398438 -52.398438 38.320312 -50.613281 38.875 -48.625 C 39.4375 -46.644531 40.191406 -44.941406 41.140625 -43.515625 C 44.472656 -39.234375 48.632812 -35.785156 53.625 -33.171875 C 58.625 -30.554688 63.816406 -28.929688 69.203125 -28.296875 C 75.222656 -27.660156 80.253906 -28.492188 84.296875 -30.796875 C 88.347656 -33.097656 92.910156 -35.515625 97.984375 -38.046875 C 100.359375 -39.316406 101.976562 -40.109375 102.84375 -40.421875 C 103.71875 -40.742188 105.1875 -40.03125 107.25 -38.28125 C 109.46875 -36.539062 111.566406 -34.164062 113.546875 -31.15625 C 115.535156 -28.144531 117.476562 -25.53125 119.375 -23.3125 C 121.4375 -20.613281 121.359375 -18.070312 119.140625 -15.6875 C 116.921875 -13.3125 113.507812 -11.132812 108.90625 -9.15625 C 104.3125 -7.175781 99.316406 -5.472656 93.921875 -4.046875 C 88.535156 -2.617188 83.660156 -1.507812 79.296875 -0.71875 C 74.941406 0.0703125 71.972656 0.46875 70.390625 0.46875 C 59.765625 0.46875 49.972656 -1.628906 41.015625 -5.828125 C 32.066406 -10.023438 24.421875 -15.726562 18.078125 -22.9375 C 11.734375 -30.15625 6.972656 -38.28125 3.796875 -47.3125 C 0.628906 -56.351562 -0.597656 -65.828125 0.109375 -75.734375 C 0.828125 -85.648438 3.882812 -95.285156 9.28125 -104.640625 C 13.394531 -111.929688 18.898438 -118.113281 25.796875 -123.1875 C 32.691406 -128.257812 40.300781 -132.023438 48.625 -134.484375 C 56.957031 -136.941406 65.484375 -138.050781 74.203125 -137.8125 C 82.921875 -137.570312 91.203125 -135.828125 99.046875 -132.578125 C 106.898438 -129.328125 113.757812 -124.453125 119.625 -117.953125 C 122.3125 -114.941406 124.882812 -111.175781 127.34375 -106.65625 C 129.800781 -102.132812 131.898438 -97.257812 133.640625 -92.03125 C 135.390625 -86.800781 136.460938 -81.6875 136.859375 -76.6875 C 137.253906 -71.695312 136.738281 -67.140625 135.3125 -63.015625 C 135 -62.066406 134.363281 -61.195312 133.40625 -60.40625 Z M 97.5 -85.140625 C 97.976562 -86.242188 98.140625 -87.429688 97.984375 -88.703125 C 97.816406 -90.609375 96.941406 -92.429688 95.359375 -94.171875 C 91.078125 -100.191406 85.523438 -104.628906 78.703125 -107.484375 C 71.890625 -110.335938 64.914062 -110.179688 57.78125 -107.015625 C 54.613281 -105.585938 51.640625 -103.765625 48.859375 -101.546875 C 46.085938 -99.328125 43.515625 -96.945312 41.140625 -94.40625 C 40.503906 -93.769531 39.867188 -93.054688 39.234375 -92.265625 C 38.597656 -91.472656 38.125 -90.601562 37.8125 -89.65625 C 37.175781 -87.75 37.492188 -86.003906 38.765625 -84.421875 C 40.035156 -82.835938 41.617188 -82.046875 43.515625 -82.046875 L 92.03125 -82.046875 C 94.726562 -82.046875 96.550781 -83.078125 97.5 -85.140625 Z M 97.5 -85.140625 "/></g></g></g><g fill="#F1EBDD" fill-opacity="1"><g transform="translate(1155.821624, 817.69959)"><g><path d="M 81.8125 -6.1875 C 73.09375 -2.0625 64.289062 0 55.40625 0 C 50.332031 0 44.742188 -0.710938 38.640625 -2.140625 C 32.535156 -3.566406 26.585938 -5.390625 20.796875 -7.609375 C 15.015625 -9.828125 9.90625 -12.207031 5.46875 -14.75 C 2.132812 -16.644531 0.390625 -18.582031 0.234375 -20.5625 C 0.078125 -22.550781 0.789062 -24.613281 2.375 -26.75 C 3.957031 -28.894531 5.460938 -31.234375 6.890625 -33.765625 C 7.367188 -34.554688 7.882812 -35.304688 8.4375 -36.015625 C 9 -36.734375 9.59375 -37.332031 10.21875 -37.8125 C 11.96875 -39.082031 13.789062 -39.476562 15.6875 -39 C 17.59375 -38.519531 19.457031 -37.722656 21.28125 -36.609375 C 23.101562 -35.503906 24.726562 -34.554688 26.15625 -33.765625 C 31.070312 -31.078125 36.460938 -29.097656 42.328125 -27.828125 C 48.191406 -26.554688 53.898438 -26.078125 59.453125 -26.390625 C 63.578125 -26.710938 67.378906 -27.625 70.859375 -29.125 C 74.347656 -30.632812 76.410156 -32.738281 77.046875 -35.4375 C 77.679688 -38.132812 75.78125 -41.304688 71.34375 -44.953125 C 65.476562 -49.546875 59.253906 -53.347656 52.671875 -56.359375 C 46.097656 -59.367188 39.320312 -61.984375 32.34375 -64.203125 C 25.84375 -66.265625 20.609375 -69.359375 16.640625 -73.484375 C 12.679688 -77.609375 9.867188 -82.207031 8.203125 -87.28125 C 6.535156 -92.351562 6.019531 -97.265625 6.65625 -102.015625 C 7.445312 -107.085938 9.425781 -111.921875 12.59375 -116.515625 C 15.769531 -121.117188 19.734375 -125.164062 24.484375 -128.65625 C 29.242188 -132.144531 34.398438 -134.523438 39.953125 -135.796875 C 43.117188 -136.585938 46.207031 -137.179688 49.21875 -137.578125 C 52.238281 -137.972656 55.253906 -138.171875 58.265625 -138.171875 C 63.972656 -138.171875 69.597656 -137.492188 75.140625 -136.140625 C 80.691406 -134.796875 86.003906 -132.9375 91.078125 -130.5625 C 95.679688 -128.5 98.972656 -126.554688 100.953125 -124.734375 C 102.929688 -122.910156 103.644531 -120.726562 103.09375 -118.1875 C 102.539062 -115.65625 100.675781 -112.085938 97.5 -107.484375 C 95.125 -104.003906 92.429688 -102.066406 89.421875 -101.671875 C 86.410156 -101.273438 83.160156 -101.707031 79.671875 -102.96875 C 76.179688 -104.238281 72.648438 -105.785156 69.078125 -107.609375 C 65.515625 -109.429688 62.03125 -110.976562 58.625 -112.25 C 55.21875 -113.519531 52.085938 -113.914062 49.234375 -113.4375 C 46.378906 -112.957031 43.84375 -110.972656 41.625 -107.484375 C 39.5625 -104.003906 38.960938 -100.953125 39.828125 -98.328125 C 40.703125 -95.710938 42.488281 -93.453125 45.1875 -91.546875 C 47.882812 -89.648438 51.015625 -88.066406 54.578125 -86.796875 C 58.140625 -85.535156 61.585938 -84.425781 64.921875 -83.46875 C 68.253906 -82.519531 70.953125 -81.648438 73.015625 -80.859375 C 79.035156 -78.640625 84.898438 -75.941406 90.609375 -72.765625 C 96.316406 -69.597656 100.914062 -65.160156 104.40625 -59.453125 C 109.15625 -51.523438 110.851562 -44.113281 109.5 -37.21875 C 108.15625 -30.320312 104.945312 -24.21875 99.875 -18.90625 C 94.800781 -13.59375 88.78125 -9.351562 81.8125 -6.1875 Z M 81.8125 -6.1875 "/></g></g></g></svg>