<svg xmlns="http://www.w3.org/2000/svg" xmlns:xlink="http://www.w3.org/1999/xlink" width="2000" zoomAndPan="magnify" viewBox="0 0 1500 1499.999933" height="2000" preserveAspectRatio="xMidYMid meet" version="1.0"><defs><clipPath id="ac5d7afb12"><path d="M 672 91 L 959 91 L 959 1322 L 672 1322 Z M 672 91 " clip-rule="nonzero"/></clipPath><clipPath id="8cc39ec142"><path d="M 873.796875 84.558594 L 968.523438 1323.691406 L 626.023438 1349.875 L 531.296875 110.742188 Z M 873.796875 84.558594 " clip-rule="nonzero"/></clipPath><clipPath id="5c6228a980"><path d="M 873.796875 84.558594 L 968.523438 1323.691406 L 626.023438 1349.875 L 531.296875 110.742188 Z M 873.796875 84.558594 " clip-rule="nonzero"/></clipPath><clipPath id="11729d6d1e"><path d="M 873.796875 84.558594 L 968.523438 1323.691406 L 626.023438 1349.875 L 531.296875 110.742188 Z M 873.796875 84.558594 " clip-rule="nonzero"/></clipPath></defs><g clip-path="url(#ac5d7afb12)"><g clip-path="url(#8cc39ec142)"><g clip-path="url(#5c6228a980)"><g clip-path="url(#11729d6d1e)"><path fill="#2A1A13" d="M 835.277344 108.46875 C 643.203125 494.082031 586.367188 830.820312 860.511719 1239.480469 C 861.988281 1240.3125 863.460938 1241.136719 864.9375 1241.972656 C 829.058594 1241.710938 777.308594 1201.753906 735.1875 1190.847656 C 707.765625 1179.300781 673.722656 1203.914062 714.039062 1221.023438 C 750.699219 1236.597656 791.164062 1242.367188 827.765625 1259.546875 C 849.5625 1269.777344 870.410156 1281.835938 891.082031 1294.136719 C 903.996094 1301.828125 930.992188 1326.285156 946.542969 1321.289062 C 964.363281 1315.558594 956.90625 1290.3125 954.476562 1276.363281 C 947.074219 1233.945312 932.574219 1193.109375 919.945312 1152.078125 C 909.554688 1118.347656 899.519531 1084.070312 887.046875 1051.027344 C 880.476562 1033.613281 869.96875 1025.046875 868.421875 1050.980469 C 867.007812 1074.703125 877.625 1100.140625 883.644531 1122.714844 C 884.1875 1124.761719 884.738281 1126.804688 885.226562 1128.875 C 893.191406 1162.257812 902.449219 1197.734375 895.265625 1232.117188 C 620.183594 875.058594 655.460938 495.328125 875.21875 103.089844 C 867.488281 87.371094 842.367188 87.28125 835.277344 108.46875 " fill-opacity="1" fill-rule="nonzero"/></g></g></g></g></svg>