<svg xmlns="http://www.w3.org/2000/svg" xmlns:xlink="http://www.w3.org/1999/xlink" width="2000" zoomAndPan="magnify" viewBox="0 0 1500 1499.999933" height="2000" preserveAspectRatio="xMidYMid meet" version="1.0"><path fill="#645A4E" d="M 355.71875 250.453125 C 349.628906 179.964844 419.113281 128.367188 471.574219 153.65625 C 518.84375 116.300781 531.535156 116.667969 570.777344 156.796875 C 572.339844 155.675781 573.808594 154.445312 575.183594 153.097656 C 589.214844 137.257812 604.09375 122.9375 627.863281 130.910156 C 652.175781 139.035156 669.039062 157.496094 670.445312 181.449219 C 672.699219 217.210938 670.957031 252.777344 665.21875 288.148438 C 658.945312 325.410156 646.992188 361.914062 635.171875 397.988281 C 625.851562 426.480469 613.011719 453.824219 601.585938 482.046875 C 673.597656 585.457031 756.167969 684.675781 807.253906 797.636719 C 828.125 764.230469 849.851562 727.476562 873.515625 692.023438 C 911.886719 634.527344 930.414062 569.902344 943.050781 503.257812 C 943.632812 500.03125 944.042969 496.78125 944.285156 493.511719 C 944.527344 490.238281 944.597656 486.964844 944.496094 483.6875 C 944.394531 480.410156 944.125 477.144531 943.679688 473.894531 C 943.238281 470.644531 942.625 467.429688 941.84375 464.242188 C 941.0625 461.058594 940.117188 457.921875 939.007812 454.835938 C 937.894531 451.75 936.628906 448.730469 935.199219 445.777344 C 933.773438 442.824219 932.195312 439.953125 930.46875 437.167969 C 928.742188 434.378906 926.871094 431.691406 924.863281 429.097656 C 884.097656 372.96875 879.886719 310.152344 892.820312 244.855469 C 900.40625 206.570312 924.988281 193.683594 962.058594 207.722656 C 965.695312 209.277344 969.4375 210.5 973.289062 211.386719 C 977.140625 212.277344 981.042969 212.816406 984.992188 213.011719 C 988.941406 213.203125 992.875 213.046875 996.796875 212.539062 C 1000.714844 212.03125 1004.5625 211.179688 1008.328125 209.988281 C 1037.074219 201.203125 1058.542969 213.035156 1074.132812 238.957031 C 1075.207031 240.472656 1076.433594 241.859375 1077.804688 243.113281 C 1079.179688 244.367188 1080.667969 245.460938 1082.277344 246.394531 C 1083.882812 247.332031 1085.574219 248.082031 1087.34375 248.65625 C 1089.113281 249.226562 1090.921875 249.605469 1092.773438 249.789062 C 1130.621094 250.414062 1147.730469 262.96875 1157.957031 300.03125 C 1158.601562 304.949219 1160.128906 309.570312 1162.542969 313.902344 C 1193.675781 352.585938 1170.921875 393.152344 1135.863281 410.324219 C 1097.246094 429.238281 1058.40625 448.695312 1017.761719 462.152344 C 982.5625 473.808594 964.636719 491.109375 958.429688 529.613281 C 944.636719 615.179688 908.761719 692.460938 855.230469 761.160156 C 828.496094 795.464844 823 834.601562 827.003906 877.03125 C 830.703125 916.421875 829.222656 956.316406 833.058594 995.691406 C 836.964844 1031.277344 842.6875 1066.566406 850.230469 1101.5625 C 855.066406 1125.332031 863.203125 1148.429688 870.910156 1175.503906 C 898.695312 1119.148438 953.945312 1082.089844 961.15625 1017.464844 C 964.101562 991.054688 966.75 963.703125 963.207031 937.636719 C 953.890625 869.214844 966.511719 806.339844 997.992188 745.222656 C 1023.417969 695.90625 1042.742188 643.484375 1067.835938 593.988281 C 1085.261719 559.621094 1107.59375 527.699219 1128.507812 495.191406 C 1131.222656 490.972656 1138.601562 489.761719 1143.820312 487.160156 C 1145.183594 492.835938 1148.277344 498.71875 1147.625 504.160156 C 1143.769531 536.351562 1139.96875 568.59375 1134.421875 600.515625 C 1124.367188 658.359375 1131.875 714.425781 1149.53125 769.550781 C 1167.503906 825.636719 1163.703125 879.523438 1134.402344 930.867188 C 1111.476562 971.039062 1101.578125 1012.625 1113.0625 1058.828125 C 1124.15625 1103.476562 1104.882812 1138.808594 1073.882812 1169.050781 C 1048.582031 1193.742188 1017.617188 1208.199219 984.605469 1220.191406 C 950.988281 1232.410156 915.5 1245.214844 897.65625 1279.433594 C 880.589844 1312.160156 867.660156 1347.046875 851.652344 1383.875 C 847.695312 1377.242188 844.523438 1370.257812 842.136719 1362.914062 C 836.925781 1338.960938 833.835938 1314.53125 828.230469 1290.683594 C 816.890625 1242.457031 772.339844 1222.480469 728.375 1245.378906 C 708.957031 1255.476562 689.835938 1266.148438 670.738281 1276.847656 C 619.257812 1305.683594 574.890625 1299.070312 536.210938 1254.65625 C 531.183594 1248.738281 525.734375 1243.234375 519.867188 1238.148438 C 513.996094 1233.0625 507.773438 1228.453125 501.195312 1224.320312 C 494.621094 1220.1875 487.769531 1216.578125 480.640625 1213.496094 C 473.511719 1210.410156 466.191406 1207.886719 458.675781 1205.925781 C 386.652344 1186.605469 349.699219 1138.5625 349.015625 1062.636719 C 348.808594 1039.347656 351.488281 1016.035156 352.648438 992.726562 C 355.5 935.46875 331.273438 891.773438 285.375 859.019531 C 282.207031 857.417969 279.335938 855.398438 276.757812 852.960938 C 273.917969 848.53125 271.441406 843.910156 269.335938 839.089844 C 274.628906 836.714844 280.890625 831.171875 285.050781 832.457031 C 321.832031 843.824219 360.40625 852.21875 394.242188 869.628906 C 443.050781 894.738281 482.328125 933.757812 515.890625 977.167969 C 544.765625 1014.511719 579.558594 1026.96875 625.746094 1016.121094 C 697.613281 999.242188 759.441406 1021.992188 812.050781 1070.617188 C 810.289062 1028.125 808.527344 986.3125 806.828125 944.503906 C 805.992188 923.898438 793.761719 910.515625 777.589844 900.582031 C 712.613281 860.636719 641.757812 838.980469 565.707031 846.539062 C 478.710938 855.1875 416.847656 819.722656 376.054688 746.609375 C 351.746094 703.019531 320.476562 668.9375 277.65625 644.226562 C 276.207031 643.148438 274.863281 641.953125 273.628906 640.636719 C 272.390625 639.320312 271.28125 637.90625 270.292969 636.394531 C 269.308594 634.882812 268.464844 633.292969 267.757812 631.632812 C 267.054688 629.96875 266.5 628.257812 266.097656 626.496094 C 265.539062 624.449219 274.664062 617.132812 279.847656 616.542969 C 353.886719 608.140625 428.015625 604.136719 500.90625 624.402344 C 544.191406 636.453125 581.453125 659.105469 608.367188 695.953125 C 621.25 713.59375 637.460938 725.285156 658.820312 727.75 C 707.34375 733.398438 742.015625 760.4375 770.894531 797.199219 C 773.085938 799.972656 775.121094 802.898438 777.230469 805.753906 L 781.957031 802.6875 C 768.953125 778.378906 757.765625 752.863281 742.609375 729.976562 C 693.011719 655.136719 641.800781 581.367188 591.6875 506.863281 C 583.855469 495.21875 576.019531 493.652344 561.902344 495.078125 C 451.847656 506.195312 354.84375 476.132812 275.949219 396.832031 C 240.3125 361.027344 241.164062 301.402344 277.042969 269.234375 C 287.730469 259.640625 303.804688 254.769531 318.257812 251.050781 C 329.441406 248.152344 341.953125 250.453125 355.71875 250.453125 Z M 355.71875 250.453125 " fill-opacity="1" fill-rule="nonzero"/><path fill="#645A4E" d="M 764.207031 125.914062 C 786.917969 155.25 813.472656 182.515625 830.824219 214.734375 C 840.359375 232.4375 836.222656 258.582031 835.058594 280.753906 C 832.511719 329.296875 826.984375 377.652344 824.71875 426.179688 C 824.414062 434.289062 824.941406 442.339844 826.308594 450.335938 C 827.675781 458.332031 829.847656 466.101562 832.828125 473.648438 C 848.546875 512.980469 846.332031 551.363281 836.207031 591.574219 C 828.039062 624.046875 825.519531 657.925781 819.875 691.074219 C 818.820312 697.273438 815.886719 706.992188 812.015625 707.992188 C 810.214844 708.382812 808.394531 708.574219 806.550781 708.558594 C 804.707031 708.542969 802.886719 708.324219 801.09375 707.898438 C 799.300781 707.476562 797.574219 706.859375 795.917969 706.046875 C 794.261719 705.238281 792.71875 704.253906 791.28125 703.09375 C 759.945312 668.949219 731.246094 631.175781 727.835938 584.050781 C 724.988281 544.699219 734.808594 504.597656 734.773438 464.835938 C 734.734375 430.0625 733.386719 394.054688 724.421875 360.8125 C 708.730469 302.609375 709.757812 246.867188 731.09375 191.003906 C 739.238281 169.683594 747.390625 148.363281 755.546875 127.042969 Z M 764.207031 125.914062 " fill-opacity="1" fill-rule="nonzero"/></svg>