<svg xmlns="http://www.w3.org/2000/svg" xmlns:xlink="http://www.w3.org/1999/xlink" width="2000" zoomAndPan="magnify" viewBox="0 0 1500 1499.999933" height="2000" preserveAspectRatio="xMidYMid meet" version="1.0"><path fill="#F1EBDD" d="M 999.765625 363.097656 C 1005.125 348.457031 1010.980469 331.625 1017.4375 315.023438 C 1035.085938 269.636719 1047.335938 220.957031 1086.164062 187.460938 C 1093.144531 181.378906 1100.601562 175.953125 1108.535156 171.183594 C 1116.46875 166.410156 1124.757812 162.367188 1133.402344 159.050781 C 1158.167969 149.882812 1178.625 169.175781 1171.183594 194.515625 C 1169.503906 200.175781 1168.234375 205.929688 1167.367188 211.769531 C 1166.503906 217.609375 1166.058594 223.484375 1166.027344 229.386719 C 1165.996094 235.292969 1166.378906 241.167969 1167.179688 247.019531 C 1167.980469 252.867188 1169.191406 258.632812 1170.808594 264.3125 C 1178.382812 293.492188 1169.273438 319.703125 1141.390625 335.453125 C 1104.476562 356.308594 1067.949219 378.277344 1029.472656 395.875 C 972.144531 422.089844 945.710938 473.246094 919.472656 518.535156 C 944.074219 496.617188 971.183594 470.191406 1000.785156 446.945312 C 1017.691406 433.667969 1038.230469 424.621094 1057.941406 415.433594 C 1072.429688 408.703125 1088.898438 406.84375 1100.601562 420.734375 C 1111.539062 433.734375 1107.421875 448.789062 1100.203125 462.453125 C 1074.117188 511.886719 1034.289062 547.027344 985.695312 573.640625 C 955.972656 589.90625 928.492188 610.667969 897.871094 624.800781 C 864.851562 640.023438 864.941406 669.289062 859.390625 697.0625 C 857.789062 705.058594 857.746094 713.402344 856.710938 724.5625 C 874 701.457031 887.894531 678.921875 905.675781 660.054688 C 932.183594 631.898438 961.886719 607.257812 1001.785156 599.042969 C 1023.585938 594.546875 1042.984375 600.824219 1060.523438 611.785156 C 1079.597656 623.707031 1081.253906 652.964844 1061.785156 670.878906 C 1040.214844 690.742188 1015.351562 707.117188 991.34375 724.199219 C 978.808594 733.117188 964.589844 739.644531 951.929688 748.402344 C 949.398438 750.109375 946.957031 751.9375 944.605469 753.890625 C 942.257812 755.839844 940.007812 757.902344 937.863281 760.078125 C 935.71875 762.253906 933.6875 764.527344 931.769531 766.90625 C 929.851562 769.28125 928.058594 771.75 926.386719 774.304688 C 924.714844 776.859375 923.171875 779.492188 921.761719 782.203125 C 920.351562 784.914062 919.078125 787.683594 917.945312 790.519531 C 916.8125 793.355469 915.820312 796.242188 914.976562 799.175781 C 914.128906 802.113281 913.429688 805.082031 912.878906 808.085938 C 906.257812 840.421875 897.179688 871.933594 867.359375 892.1875 C 866.660156 892.945312 866.058594 893.777344 865.554688 894.675781 C 865.054688 895.578125 864.664062 896.527344 864.382812 897.519531 C 864.105469 898.515625 863.945312 899.527344 863.90625 900.558594 C 863.867188 901.589844 863.949219 902.609375 864.152344 903.621094 C 874.492188 943.234375 885.398438 982.699219 896.152344 1022.199219 L 902.84375 1021.542969 C 903.730469 1007.929688 904.84375 994.320312 905.457031 980.6875 C 907.980469 924.636719 912.074219 868.839844 937.972656 817.542969 C 941.523438 810.480469 945.574219 803.71875 950.128906 797.261719 C 954.683594 790.800781 959.6875 784.710938 965.148438 778.996094 C 970.609375 773.28125 976.460938 768 982.703125 763.152344 C 988.949219 758.308594 995.515625 753.949219 1002.40625 750.078125 C 1040.832031 728.078125 1072.640625 743.296875 1080.496094 786.410156 C 1081.15625 789.691406 1082.324219 792.785156 1083.996094 795.683594 C 1085.667969 798.582031 1087.753906 801.140625 1090.261719 803.359375 C 1112.117188 821.355469 1116.578125 841.09375 1097.804688 863.339844 C 1085.28125 878.1875 1068.394531 890.097656 1051.734375 900.578125 C 1008.214844 927.925781 967.695312 958.105469 942.429688 1004.339844 C 932.984375 1021.625 924.882812 1039.644531 913.566406 1062.613281 L 988.6875 1185.386719 L 992.628906 1182.941406 C 990.527344 1152.683594 988.421875 1122.425781 986.316406 1092.167969 C 983.449219 1051.460938 996.566406 1014.855469 1016.453125 980.5 C 1033.207031 951.546875 1061.523438 936.953125 1091.871094 927.0625 C 1110.152344 921.105469 1134.367188 938.453125 1139.980469 959.570312 C 1146.554688 984.394531 1143.898438 1007.957031 1128.652344 1029.417969 C 1121.941406 1038.863281 1115.847656 1048.769531 1108.796875 1057.949219 C 1071.433594 1106.609375 1058.238281 1161.273438 1059.648438 1222.511719 C 1060.347656 1252.804688 1068.484375 1272.675781 1093.925781 1286.671875 C 1095.609375 1287.59375 1097.050781 1288.945312 1098.644531 1290.039062 C 1107.898438 1296.347656 1115.894531 1304.648438 1107.589844 1315.375 C 1099.28125 1326.101562 1089.363281 1320.582031 1081.003906 1312.957031 C 1066.777344 1299.980469 1052.476562 1287.070312 1037.785156 1273.75 C 1014.386719 1304.042969 980.0625 1306.378906 946.746094 1312.332031 C 922.746094 1316.160156 899.238281 1321.984375 876.226562 1329.804688 C 838.449219 1343.476562 800.382812 1349.785156 760.667969 1343.125 C 732.691406 1338.4375 714.164062 1322.398438 710.90625 1301.46875 C 710.707031 1299.792969 710.570312 1298.109375 710.5 1296.421875 C 710.429688 1294.734375 710.425781 1293.046875 710.484375 1291.355469 C 710.546875 1289.667969 710.671875 1287.984375 710.867188 1286.304688 C 711.058594 1284.628906 711.316406 1282.957031 711.636719 1281.300781 C 711.960938 1279.640625 712.347656 1278 712.796875 1276.371094 C 713.246094 1274.742188 713.761719 1273.132812 714.335938 1271.546875 C 714.914062 1269.957031 715.550781 1268.394531 716.246094 1266.855469 C 716.945312 1265.316406 717.703125 1263.808594 718.519531 1262.328125 C 719.332031 1260.847656 720.207031 1259.402344 721.132812 1257.992188 C 722.0625 1256.578125 723.042969 1255.207031 724.078125 1253.871094 C 725.113281 1252.535156 726.199219 1251.242188 727.335938 1249.992188 C 728.472656 1248.742188 729.65625 1247.535156 730.886719 1246.378906 C 732.113281 1245.21875 733.386719 1244.109375 734.703125 1243.050781 C 736.019531 1241.992188 737.375 1240.988281 738.769531 1240.035156 C 740.167969 1239.082031 741.597656 1238.183594 743.0625 1237.339844 C 744.527344 1236.5 746.019531 1235.714844 747.546875 1234.988281 C 761.664062 1228.644531 776.429688 1224.75 791.839844 1223.308594 C 839.558594 1218.9375 886.546875 1221.703125 932.582031 1238.007812 C 960.074219 1247.742188 989.097656 1253.152344 1016.3125 1260.21875 L 885.605469 1070.9375 C 844.984375 1076.070312 805.660156 1095.613281 769.804688 1126.457031 C 741.1875 1150.242188 710.675781 1171.277344 678.269531 1189.570312 C 668.242188 1195.460938 645.609375 1196.117188 639.980469 1189.570312 C 630.511719 1178.515625 627.359375 1159.890625 626.613281 1144.210938 C 626.019531 1131.390625 633.105469 1118.285156 636.316406 1105.191406 C 639.355469 1095.335938 641.328125 1085.277344 642.234375 1075.003906 C 644.523438 987.910156 720.101562 961.140625 784.933594 974.675781 C 793.042969 976.167969 800.984375 978.296875 808.753906 981.054688 C 816.523438 983.8125 824.027344 987.167969 831.261719 991.121094 C 838.496094 995.074219 845.375 999.574219 851.890625 1004.621094 C 858.410156 1009.671875 864.488281 1015.203125 870.125 1021.21875 C 863.324219 997.960938 856.984375 974.535156 849.222656 951.601562 C 847.984375 947.941406 840.582031 945.667969 835.601562 944.09375 C 816.71875 938.132812 797.261719 933.804688 778.75 926.902344 C 715.691406 903.417969 687.265625 854.53125 683.382812 790.15625 C 679.980469 733.742188 678.234375 677.183594 677.800781 620.675781 C 677.902344 617.335938 678.277344 614.023438 678.925781 610.742188 C 679.570312 607.464844 680.480469 604.257812 681.65625 601.128906 C 682.828125 598 684.25 594.984375 685.921875 592.089844 C 687.589844 589.191406 689.488281 586.453125 691.605469 583.867188 C 698.21875 576.078125 713.269531 569.65625 722.65625 571.667969 C 724.015625 572.125 725.347656 572.664062 726.644531 573.28125 C 727.945312 573.898438 729.203125 574.585938 730.421875 575.351562 C 731.636719 576.117188 732.804688 576.949219 733.925781 577.855469 C 735.042969 578.757812 736.105469 579.722656 737.109375 580.75 C 738.117188 581.777344 739.058594 582.859375 739.933594 584 C 740.8125 585.136719 741.621094 586.324219 742.355469 587.558594 C 743.09375 588.792969 743.757812 590.066406 744.34375 591.378906 C 744.929688 592.691406 745.4375 594.03125 745.867188 595.40625 C 749.898438 616.667969 757.257812 631.203125 775.953125 644.964844 C 804.007812 665.621094 800.214844 700.367188 797.902344 730.800781 C 794.726562 772.671875 790.75 814.261719 800.902344 855.585938 C 802.152344 861.367188 803.910156 866.992188 806.179688 872.457031 C 808.453125 877.917969 811.195312 883.132812 814.414062 888.101562 C 817.628906 893.066406 821.269531 897.699219 825.328125 902.003906 C 829.386719 906.308594 833.800781 910.214844 838.570312 913.714844 C 835.8125 880.476562 832.734375 848.984375 830.683594 817.425781 C 828.875 787.183594 829.625 757.003906 832.925781 726.890625 C 836.230469 696.773438 842.042969 667.148438 850.367188 638.019531 C 854.03125 624.839844 851.628906 617.207031 843.167969 605.148438 C 808.109375 555.050781 776.988281 502.90625 774 438.46875 C 771.894531 393.53125 778.425781 351.210938 798.675781 311.261719 C 812.027344 284.925781 838.328125 279.054688 858.847656 299.011719 C 860.726562 301.050781 862.402344 303.246094 863.875 305.597656 C 865.34375 307.949219 866.585938 310.417969 867.59375 313 C 868.605469 315.585938 869.367188 318.242188 869.882812 320.964844 C 870.394531 323.691406 870.652344 326.441406 870.652344 329.21875 C 869.992188 348.269531 874.476562 364.5625 888.886719 375.808594 C 927.804688 406.222656 927.699219 443.730469 911.464844 485.042969 C 910.8125 486.707031 910.503906 488.5 908.8125 494.722656 C 923.816406 474.449219 936.90625 458.300781 948.003906 440.867188 C 948.804688 439.179688 949.457031 437.441406 949.953125 435.644531 C 950.449219 433.847656 950.789062 432.019531 950.96875 430.164062 C 951.148438 428.308594 951.164062 426.449219 951.019531 424.589844 C 950.875 422.730469 950.570312 420.898438 950.109375 419.089844 C 941.113281 377.066406 931.347656 335.203125 921.578125 293.351562 C 910.097656 244.1875 928.242188 203.53125 958.550781 166.902344 C 968.390625 155.019531 983.5625 156.179688 989.960938 171.488281 C 999.195312 193.546875 1008.035156 217.726562 1008.371094 241.125 C 1008.980469 281.949219 1002.964844 322.839844 999.765625 363.097656 Z M 999.765625 363.097656 " fill-opacity="1" fill-rule="nonzero"/><path fill="#F1EBDD" d="M 457.050781 774.511719 C 452.972656 796.558594 450.40625 818.777344 449.351562 841.171875 C 448.292969 863.566406 448.757812 885.929688 450.742188 908.257812 C 454.914062 965.925781 459.902344 1023.660156 460.320312 1081.402344 C 460.472656 1101.894531 451.402344 1124.238281 441.023438 1142.632812 C 423.148438 1174.335938 393.679688 1173.980469 371.054688 1144.8125 C 350.679688 1118.554688 349.980469 1086.515625 349.757812 1056.335938 C 349.496094 1021.320312 357.121094 986.308594 359.910156 951.183594 C 360.515625 934.726562 360.074219 918.296875 358.585938 901.894531 C 357.050781 870.679688 350.539062 838.871094 354.527344 808.417969 C 362.234375 749.601562 402.570312 712.90625 451.78125 684.785156 C 454.359375 683.070312 456.257812 680.789062 457.472656 677.9375 C 475.828125 639.371094 492.183594 599.972656 506.539062 559.746094 C 487.765625 574.183594 468.921875 588.511719 450.25 603.085938 C 422.476562 624.71875 395.574219 647.511719 366.9375 667.878906 C 348.003906 681.34375 323.066406 665.617188 321.765625 639.085938 C 321.484375 632.367188 321.96875 625.703125 323.214844 619.09375 C 324.464844 612.488281 326.445312 606.105469 329.160156 599.953125 C 360.402344 530.90625 420.417969 498.003906 489.089844 478.0625 C 513.308594 471.03125 536.503906 476.914062 554.386719 499.144531 L 650.023438 385.886719 C 626.507812 385.886719 603.164062 383.398438 580.597656 386.503906 C 551.429688 390.515625 523.15625 401.621094 493.96875 404.804688 C 465.253906 407.359375 436.574219 407.027344 407.925781 403.808594 C 392.777344 402.390625 386.011719 390.605469 390.417969 373.671875 C 390.933594 371.234375 391.609375 368.84375 392.445312 366.496094 C 393.28125 364.152344 394.265625 361.871094 395.402344 359.65625 C 396.539062 357.441406 397.816406 355.308594 399.238281 353.265625 C 400.65625 351.21875 402.207031 349.277344 403.882812 347.433594 C 405.558594 345.59375 407.351562 343.871094 409.257812 342.269531 C 411.160156 340.667969 413.164062 339.195312 415.265625 337.859375 C 417.363281 336.519531 419.542969 335.328125 421.800781 334.28125 C 424.0625 333.230469 426.378906 332.335938 428.757812 331.59375 C 436.085938 329.109375 443.601562 327.476562 451.304688 326.695312 C 486.296875 323.160156 518.625 314.628906 547.515625 292.003906 C 562.183594 280.527344 582.765625 276.605469 599.816406 269.617188 C 584.410156 253.207031 566.496094 233.011719 568.597656 202.984375 C 569.390625 191.6875 573.269531 183.5625 586.023438 185.679688 C 620.851562 191.460938 655.621094 197.632812 690.328125 204.195312 C 714.625 208.761719 734.042969 219.8125 739.476562 247.476562 C 758.488281 229.300781 746.578125 199.6875 766.878906 179.125 C 776.136719 204.988281 775.246094 226.074219 767.203125 246.804688 C 763.039062 257.542969 758.851562 268.976562 751.765625 277.75 C 723.378906 312.90625 732.726562 348.980469 746.71875 385.761719 C 751.503906 398.347656 755.554688 411.230469 759.59375 424.078125 C 772.636719 465.390625 756.226562 496.847656 725.640625 523.125 C 714.320312 532.851562 700 531.117188 693.929688 515.96875 C 684.363281 490.25 676.367188 464.050781 669.945312 437.367188 C 667.894531 429.6875 669.632812 420.992188 669.632812 412.261719 C 634.488281 425.457031 644.804688 453.398438 647.6875 476.882812 C 651.226562 505.492188 658.292969 533.683594 664.308594 561.972656 C 673.410156 604.726562 668.542969 644.527344 636.988281 676.921875 C 634.871094 678.882812 632.597656 680.640625 630.160156 682.1875 C 627.726562 683.738281 625.171875 685.054688 622.5 686.140625 C 619.824219 687.226562 617.074219 688.0625 614.25 688.652344 C 611.425781 689.238281 608.570312 689.566406 605.683594 689.636719 C 600.828125 689.636719 595.566406 674.835938 591.179688 666.382812 C 588.851562 661.890625 589.332031 655.519531 586.292969 651.882812 C 560.246094 620.746094 559.589844 583.371094 559.839844 545.359375 C 557.527344 547.09375 555.292969 548.917969 553.132812 550.835938 C 550.972656 552.757812 548.898438 554.761719 546.90625 556.855469 C 544.914062 558.949219 543.015625 561.121094 541.207031 563.371094 C 539.394531 565.625 537.683594 567.949219 536.070312 570.34375 C 534.453125 572.738281 532.941406 575.195312 531.53125 577.71875 C 530.121094 580.238281 528.820312 582.816406 527.625 585.445312 C 526.433594 588.078125 525.351562 590.753906 524.382812 593.472656 C 523.410156 596.195312 522.554688 598.953125 521.816406 601.746094 C 521.078125 604.535156 520.457031 607.355469 519.953125 610.199219 C 519.449219 613.042969 519.066406 615.90625 518.800781 618.78125 C 518.539062 621.660156 518.394531 624.542969 518.371094 627.429688 C 518.347656 630.320312 518.445312 633.203125 518.664062 636.085938 C 518.882812 638.964844 519.222656 641.832031 519.679688 644.683594 C 520.136719 647.535156 520.714844 650.363281 521.410156 653.167969 C 522.105469 655.972656 522.914062 658.742188 523.84375 661.476562 C 524.769531 664.214844 525.808594 666.90625 526.960938 669.554688 C 542.34375 703.273438 561.523438 735.640625 562.070312 774.746094 C 562.210938 784.929688 569.90625 794.910156 573.640625 805.160156 C 581.855469 827.738281 580.867188 849.3125 565.644531 869.03125 C 542.191406 899.425781 508.164062 897.042969 491.933594 862.300781 C 478.914062 834.472656 469.082031 805.167969 457.050781 774.511719 Z M 716.015625 291.652344 L 650.328125 288.652344 L 681.121094 352.113281 C 693.230469 331.132812 704.863281 310.980469 716.015625 291.652344 Z M 716.015625 291.652344 " fill-opacity="1" fill-rule="nonzero"/></svg>