<svg xmlns="http://www.w3.org/2000/svg" xmlns:xlink="http://www.w3.org/1999/xlink" width="2000" zoomAndPan="magnify" viewBox="0 0 1500 1499.999933" height="2000" preserveAspectRatio="xMidYMid meet" version="1.0"><defs><clipPath id="7d076240b8"><path d="M 278 963 L 1205 963 L 1205 1467.148438 L 278 1467.148438 Z M 278 963 " clip-rule="nonzero"/></clipPath></defs><path fill="#F1EBDD" d="M 612.242188 392.871094 C 650.472656 420.78125 687.003906 451.476562 727.296875 476.023438 C 806.589844 524.269531 868.558594 586.824219 901.488281 674.4375 C 927.511719 743.675781 923.035156 814.941406 906.609375 885.542969 C 904.253906 895.664062 892.996094 910.699219 885.539062 910.894531 C 876.042969 911.132812 862.800781 900.628906 857.125 891.175781 C 832.90625 850.855469 804.074219 814.628906 766.445312 786.636719 C 759.472656 781.507812 752.71875 776.105469 746.183594 770.429688 C 739.648438 764.753906 733.355469 758.824219 727.300781 752.640625 C 721.246094 746.453125 715.449219 740.035156 709.914062 733.382812 C 704.378906 726.726562 699.121094 719.859375 694.140625 712.78125 C 689.160156 705.703125 684.472656 698.433594 680.082031 690.976562 C 675.6875 683.519531 671.605469 675.894531 667.828125 668.105469 C 664.054688 660.316406 660.597656 652.386719 657.464844 644.320312 C 654.332031 636.25 651.527344 628.070312 649.054688 619.773438 C 648.601562 618.144531 648.007812 616.570312 647.273438 615.046875 C 646.535156 613.523438 645.667969 612.078125 644.667969 610.710938 C 643.671875 609.347656 642.558594 608.082031 641.332031 606.917969 C 640.105469 605.75 638.785156 604.707031 637.371094 603.78125 C 634.628906 645.792969 631.886719 687.8125 629.140625 729.832031 C 625.839844 779.300781 623.671875 829.242188 588.753906 869.40625 C 577.785156 882.074219 565.890625 893.800781 553.070312 904.589844 C 513.871094 937.371094 482.496094 975.800781 463.140625 1023.496094 C 461.242188 1030.152344 458.144531 1036.191406 453.84375 1041.613281 C 447.230469 1048.019531 438.191406 1056.660156 430.765625 1056.136719 C 428.480469 1055.613281 426.296875 1054.820312 424.207031 1053.761719 C 422.117188 1052.703125 420.183594 1051.40625 418.40625 1049.878906 C 416.632812 1048.347656 415.066406 1046.628906 413.710938 1044.71875 C 412.355469 1042.808594 411.246094 1040.761719 410.386719 1038.582031 C 402.066406 1009.367188 396.195312 979.667969 392.773438 949.484375 C 385.066406 864.035156 408.792969 785.457031 449.929688 711.355469 C 469.859375 675.480469 491.152344 640.277344 509.128906 603.425781 C 541.515625 537.070312 540.441406 469.863281 508.503906 403.242188 C 507.058594 400.230469 505.132812 397.441406 500.597656 389.722656 C 497.835938 418.210938 495.171875 441.277344 493.445312 464.414062 C 487.707031 540.988281 459.148438 607.296875 404.941406 662.023438 C 358.003906 709.398438 314.9375 759.097656 295.488281 825.136719 C 293.617188 831.484375 282.976562 836.246094 275.414062 839.183594 C 273.609375 839.886719 264.480469 830.371094 264.34375 825.414062 C 262.554688 751.8125 257.4375 677.925781 261.902344 604.644531 C 266.089844 536.234375 306.730469 481.488281 347.785156 428.800781 C 366.933594 404.210938 386.164062 379.59375 403.777344 353.914062 C 427.789062 318.90625 431.257812 280.421875 417.902344 240.464844 C 393.707031 168.097656 343.230469 120.246094 275.542969 88.519531 C 260.855469 81.632812 238.945312 76.75 245.203125 55.613281 C 251.84375 33.148438 274.636719 37.691406 292.359375 40.457031 C 357.878906 50.699219 408.246094 89.171875 453.925781 133.285156 C 479.457031 157.953125 501.117188 187.042969 522.078125 215.917969 C 549.15625 253.199219 571.882812 264.839844 617.113281 254.859375 C 651.902344 247.171875 685.699219 234.578125 720.625 227.609375 C 756.117188 220.53125 792.523438 213.382812 828.386719 214.054688 C 872.691406 214.875 907.289062 240.011719 932.199219 276.378906 C 1001.582031 377.691406 1040.460938 487.007812 1017.585938 611.890625 C 1016.632812 617.109375 1016.59375 623.457031 1013.558594 627.109375 C 1008.710938 632.90625 1001.992188 639.90625 995.457031 640.597656 C 990.660156 641.09375 980.941406 632.898438 980.171875 627.59375 C 974.605469 589.117188 946.683594 571.222656 917.941406 551.082031 C 903.800781 541.417969 890.375 530.847656 877.664062 519.371094 C 864.953125 507.894531 853.070312 495.613281 842.015625 482.535156 C 793.847656 423.773438 732.539062 395.265625 658.246094 390.425781 C 644.273438 389.515625 630.410156 386.90625 616.496094 385.074219 Z M 612.242188 392.871094 " fill-opacity="1" fill-rule="nonzero"/><g clip-path="url(#7d076240b8)"><path fill="#F1EBDD" d="M 572.40625 1231.089844 C 602.832031 1221.925781 633.285156 1212.835938 663.6875 1203.585938 C 722.945312 1185.5625 781.714844 1190.351562 841.589844 1202.855469 C 924.0625 1220.078125 1007.902344 1230.988281 1090.046875 1249.507812 C 1126.261719 1257.667969 1160.03125 1277.308594 1194.210938 1293.246094 C 1199.832031 1295.863281 1205.835938 1307.28125 1204.410156 1312.730469 C 1202.960938 1318.292969 1192.585938 1325.117188 1186.082031 1325.160156 C 1154.9375 1325.363281 1123.773438 1323.667969 1092.640625 1322.246094 C 1006.121094 1318.320312 921.140625 1322.542969 839.875 1358.164062 C 774.152344 1386.960938 705.9375 1377.195312 637.777344 1366.339844 C 582.316406 1357.511719 526.554688 1349.90625 470.65625 1344.664062 C 402.347656 1338.25 353.609375 1369.152344 322.894531 1429.769531 C 318.085938 1439.261719 314.445312 1449.984375 307.421875 1457.5 C 302.351562 1462.933594 292.59375 1463.996094 284.925781 1467.007812 C 282.898438 1459.550781 277.003906 1450.292969 279.457031 1444.882812 C 293.652344 1413.902344 309.726562 1383.777344 325.449219 1353.503906 C 328.140625 1348.882812 331.328125 1344.625 335.003906 1340.738281 C 396.09375 1270.058594 456.101562 1198.410156 518.664062 1129.0625 C 597.613281 1041.539062 699.820312 995.429688 813.128906 970.898438 C 824.273438 968.488281 835.332031 964.089844 846.496094 963.867188 C 855.375 963.6875 867.207031 965.972656 872.378906 971.863281 C 876.386719 976.421875 875.1875 990.289062 871.050781 996.535156 C 811.003906 1087.265625 742.570312 1168.746094 634 1204.34375 C 613.820312 1210.964844 594.058594 1218.84375 574.128906 1226.214844 C 572.808594 1226.890625 571.585938 1227.707031 570.457031 1228.671875 Z M 572.40625 1231.089844 " fill-opacity="1" fill-rule="nonzero"/></g><path fill="#F1EBDD" d="M 1181.480469 837.539062 C 1217.265625 865.601562 1225.796875 913.0625 1199.613281 944.40625 C 1172.367188 977.011719 1125.632812 973.90625 1085.957031 940.671875 C 1059.070312 946.847656 1036.253906 953.597656 1013 956.9375 C 1011.914062 957.144531 1010.824219 957.308594 1009.722656 957.429688 C 1008.625 957.550781 1007.523438 957.625 1006.417969 957.652344 C 1005.3125 957.683594 1004.210938 957.664062 1003.105469 957.605469 C 1002.003906 957.542969 1000.902344 957.4375 999.808594 957.285156 C 998.714844 957.132812 997.625 956.9375 996.546875 956.695312 C 995.46875 956.457031 994.402344 956.171875 993.347656 955.84375 C 992.292969 955.515625 991.25 955.144531 990.226562 954.730469 C 989.203125 954.316406 988.195312 953.859375 987.207031 953.363281 C 986.21875 952.867188 985.253906 952.332031 984.3125 951.757812 C 983.367188 951.179688 982.449219 950.566406 981.554688 949.917969 C 980.664062 949.265625 979.796875 948.578125 978.960938 947.855469 C 978.125 947.136719 977.316406 946.378906 976.542969 945.59375 C 975.765625 944.804688 975.027344 943.984375 974.316406 943.136719 C 973.609375 942.289062 972.9375 941.410156 972.300781 940.507812 C 971.667969 939.601562 971.070312 938.675781 970.507812 937.722656 C 969.949219 936.769531 969.429688 935.792969 968.949219 934.796875 C 959.828125 916.222656 966.667969 899.332031 980.019531 884.738281 C 983.058594 881.414062 985.863281 877.863281 990 872.980469 C 967.632812 863.882812 947.9375 852.539062 948.894531 825.480469 C 949.890625 797.617188 970.886719 785.789062 992.191406 775.105469 C 986.6875 730.964844 997.128906 715.347656 1037.308594 707.085938 C 1047.695312 652.335938 1065.210938 629.214844 1096.703125 628.667969 C 1125.558594 628.171875 1148.304688 652.96875 1160.871094 700.007812 C 1185.1875 688.078125 1208.25 690.101562 1225.339844 712.054688 C 1243.507812 735.378906 1240.746094 761.460938 1225.726562 784.578125 C 1213.511719 803.347656 1196.960938 819.292969 1181.480469 837.539062 Z M 1181.480469 837.539062 " fill-opacity="1" fill-rule="nonzero"/><path fill="#F1EBDD" d="M 1094.996094 141.28125 C 1101.332031 130.308594 1108.335938 119.789062 1116.015625 109.714844 C 1116.878906 108.640625 1117.78125 107.601562 1118.726562 106.597656 C 1119.667969 105.597656 1120.648438 104.628906 1121.667969 103.703125 C 1122.6875 102.777344 1123.738281 101.890625 1124.828125 101.046875 C 1125.914062 100.203125 1127.03125 99.402344 1128.183594 98.644531 C 1129.332031 97.886719 1130.507812 97.171875 1131.714844 96.507812 C 1132.917969 95.839844 1134.148438 95.222656 1135.402344 94.652344 C 1136.652344 94.082031 1137.925781 93.558594 1139.21875 93.085938 C 1140.515625 92.617188 1141.824219 92.195312 1143.148438 91.824219 C 1144.476562 91.457031 1145.816406 91.136719 1147.167969 90.871094 C 1148.515625 90.605469 1149.875 90.394531 1151.242188 90.234375 C 1152.613281 90.074219 1153.984375 89.96875 1155.359375 89.914062 C 1156.734375 89.863281 1158.109375 89.863281 1159.488281 89.914062 C 1160.863281 89.96875 1162.234375 90.078125 1163.601562 90.238281 C 1164.96875 90.398438 1166.328125 90.613281 1167.679688 90.878906 C 1169.03125 91.144531 1170.367188 91.460938 1171.695312 91.832031 C 1173.019531 92.203125 1174.332031 92.625 1175.625 93.097656 C 1198.550781 102.179688 1208.980469 120.300781 1205.375 143.691406 C 1200.40625 176.058594 1200.179688 204.707031 1233.371094 223.816406 C 1240.191406 227.738281 1243.769531 238.539062 1247.210938 246.84375 C 1260.863281 279.769531 1248.203125 306.078125 1214.320312 316.074219 C 1206.414062 318.410156 1198.296875 320.050781 1195.554688 325.910156 C 1186.15625 344.914062 1180.394531 367.292969 1166.578125 382.199219 C 1140.203125 410.648438 1103.457031 404.207031 1081.871094 371.316406 C 1077.761719 365.8125 1074.414062 359.875 1071.820312 353.511719 C 1066.992188 338.953125 1058.734375 335.347656 1042.996094 336.320312 C 996.386719 339.203125 967.171875 310.421875 971.835938 269.042969 C 974.820312 242.699219 994.863281 231.40625 1010.488281 223.207031 C 1002.195312 199.695312 991.78125 177.753906 987.519531 154.675781 C 985.574219 144.164062 993.203125 129.210938 1000.972656 120.097656 C 1020.445312 97.226562 1042.382812 102.878906 1094.996094 141.28125 Z M 1094.996094 141.28125 " fill-opacity="1" fill-rule="nonzero"/><path fill="#F1EBDD" d="M 971.589844 1177.246094 C 942.054688 1175.007812 912.558594 1171.847656 882.984375 1170.785156 C 854.351562 1169.789062 825.589844 1171.996094 797 1170.511719 C 788.4375 1170.0625 780.277344 1161.917969 771.933594 1157.296875 C 776.488281 1149.757812 779.332031 1139.808594 785.921875 1135.109375 C 810 1117.960938 836.667969 1104.292969 859.898438 1086.15625 C 914.847656 1043.25 975.589844 1024.238281 1045.039062 1034.164062 C 1101.371094 1042.214844 1157.890625 1049.074219 1214.023438 1058.265625 C 1223.902344 1059.882812 1232.332031 1070.367188 1241.429688 1076.761719 C 1232.175781 1084.128906 1223.878906 1095.808594 1213.496094 1098.132812 C 1190.078125 1103.191406 1167.234375 1110.152344 1144.972656 1119.015625 C 1122.710938 1127.875 1101.335938 1138.519531 1080.847656 1150.941406 C 1072.695312 1155.882812 1064.210938 1160.167969 1055.394531 1163.800781 C 1046.578125 1167.429688 1037.535156 1170.359375 1028.265625 1172.589844 C 1018.996094 1174.824219 1009.609375 1176.328125 1000.105469 1177.109375 C 990.605469 1177.890625 981.097656 1177.933594 971.589844 1177.246094 Z M 971.589844 1177.246094 " fill-opacity="1" fill-rule="nonzero"/></svg>