<svg xmlns="http://www.w3.org/2000/svg" xmlns:xlink="http://www.w3.org/1999/xlink" width="2000" zoomAndPan="magnify" viewBox="0 0 1500 1499.999933" height="2000" preserveAspectRatio="xMidYMid meet" version="1.0"><path fill="#F1EBDD" d="M 583.570312 1238.433594 C 604.996094 1228.632812 624.375 1220.496094 643.097656 1211.054688 C 702.429688 1181.15625 764.78125 1172.523438 830.691406 1179.085938 C 867.566406 1182.753906 905.015625 1179.667969 942.132812 1181.335938 C 969.945312 1181.984375 997.527344 1184.863281 1024.875 1189.972656 C 1052.980469 1195.878906 1075.265625 1213.429688 1090.695312 1238.179688 C 1111.707031 1271.878906 1104.957031 1310.730469 1070.082031 1329.261719 C 1046.785156 1341.644531 1018.945312 1351.328125 993 1351.664062 C 937.332031 1352.085938 881.859375 1349 826.578125 1342.402344 C 729.710938 1331.347656 633.390625 1315.035156 535.40625 1317.121094 C 480.703125 1318.289062 428.742188 1329.042969 382.976562 1361.214844 C 380.289062 1363.101562 377.136719 1365.941406 374.351562 1365.773438 C 364.546875 1365.195312 354.804688 1363.492188 345.039062 1362.214844 C 350.0625 1354.03125 353.101562 1342.441406 360.417969 1338.195312 C 417.957031 1304.796875 448.960938 1254.046875 453.324219 1189.375 C 456.609375 1140.71875 445.144531 1092.9375 425.082031 1048.152344 C 413.171875 1021.5625 399.34375 995.777344 385.550781 970.082031 C 380.160156 960.261719 375.144531 950.253906 370.503906 940.0625 C 365.867188 929.867188 361.613281 919.511719 357.753906 908.996094 C 353.894531 898.484375 350.433594 887.839844 347.371094 877.0625 C 344.308594 866.289062 341.65625 855.414062 339.414062 844.441406 C 337.171875 833.46875 335.34375 822.425781 333.929688 811.3125 C 332.515625 800.203125 331.519531 789.054688 330.945312 777.867188 C 330.367188 766.683594 330.214844 755.492188 330.480469 744.292969 C 330.746094 733.097656 331.429688 721.925781 332.535156 710.777344 C 333.570312 701.914062 335.484375 693.246094 338.285156 684.773438 C 341.085938 676.300781 344.710938 668.199219 349.164062 660.464844 C 364.824219 632.769531 394.53125 627.617188 421.132812 645.316406 C 444.992188 661.175781 459.25 684.785156 467.003906 711.058594 C 477.472656 746.535156 483.921875 783.191406 493.03125 819.089844 C 506.242188 871.082031 519.605469 923.058594 534.242188 974.65625 C 537.277344 984.65625 539.699219 994.804688 541.503906 1005.097656 C 543.308594 1015.390625 544.488281 1025.753906 545.035156 1036.191406 C 545.585938 1046.628906 545.503906 1057.058594 544.789062 1067.484375 C 544.074219 1077.910156 542.730469 1088.253906 540.761719 1098.519531 C 529.289062 1155.339844 513.238281 1210.558594 483.773438 1265.421875 C 490.9375 1262.535156 495.339844 1261.117188 499.414062 1259.066406 C 574.394531 1221.359375 621.886719 1157.480469 662.75 1087.304688 C 671.769531 1071.820312 680.179688 1055.921875 690.136719 1041.0625 C 702.078125 1023.230469 703.890625 1003.761719 694.503906 986.226562 C 675.59375 949.839844 654.640625 914.671875 631.636719 880.722656 C 593.640625 826.132812 555.253906 772.019531 533.90625 708.210938 C 520.703125 668.742188 513.402344 628.363281 522.628906 586.8125 C 529.230469 557.058594 544.835938 534.070312 575.902344 525.746094 C 605.886719 517.714844 629.234375 531.480469 648.84375 551.976562 C 677.632812 582.074219 693.253906 619.71875 702.964844 659.261719 C 726.035156 753.195312 747.675781 847.503906 747.210938 946.832031 C 757.378906 925.058594 769.847656 904.039062 777.246094 881.363281 C 794.300781 829.128906 810.214844 776.425781 823.664062 723.167969 C 827.570312 707.691406 824.289062 688.828125 819.359375 673.0625 C 811.488281 647.859375 797.074219 624.628906 789.914062 599.292969 C 782.738281 574.488281 779.183594 549.171875 779.257812 523.347656 C 779.402344 511.519531 790.328125 495.988281 800.902344 489.113281 C 813.683594 480.804688 829.316406 487.519531 840.222656 499.269531 C 849.082031 508.8125 857.347656 518.90625 866.125 529.042969 C 871.238281 520.53125 876.914062 512.414062 883.144531 504.683594 C 900.902344 485.382812 923.765625 489.742188 933.34375 514.125 C 935.832031 521.691406 937.535156 529.433594 938.457031 537.34375 C 939.789062 545.109375 940.535156 552.957031 941.535156 560.816406 C 957.179688 557.347656 971.542969 552.183594 986.15625 551.34375 C 1021.296875 549.328125 1036.152344 574.09375 1018.429688 604.695312 C 1012.042969 615.667969 1004.089844 625.355469 994.570312 633.753906 C 957.621094 666.136719 916.398438 690.652344 866.976562 699.132812 C 862.636719 699.878906 856 703.285156 855.261719 706.558594 C 846.84375 743.164062 839.371094 779.992188 830.871094 820.445312 C 845.351562 800.761719 857.210938 783.339844 870.375 766.964844 C 920.519531 704.621094 985.074219 672.152344 1065.898438 674.332031 C 1070.566406 674.21875 1075.183594 674.652344 1079.746094 675.632812 C 1102.875 681.914062 1124.949219 690.8125 1130.933594 717.117188 C 1136.472656 741.375 1122.257812 759.140625 1103.816406 770.464844 C 1044.019531 807.171875 986.148438 850.066406 916.566406 865.238281 C 843.253906 881.226562 793.597656 923.851562 756.0625 985.152344 C 741.054688 1008.320312 728.015625 1032.542969 716.941406 1057.824219 C 723.175781 1052.9375 729.480469 1048.132812 735.636719 1043.140625 C 783.558594 1004.316406 830.304688 963.902344 879.753906 927.132812 C 914.054688 901.617188 954.445312 887.175781 996.996094 879.988281 C 1039.675781 872.78125 1073.070312 888.8125 1093.296875 926.832031 C 1096.679688 933.136719 1099.574219 939.65625 1101.980469 946.394531 C 1104.386719 953.132812 1106.277344 960.011719 1107.65625 967.03125 C 1109.03125 974.050781 1109.878906 981.136719 1110.195312 988.285156 C 1110.507812 995.429688 1110.292969 1002.5625 1109.539062 1009.675781 C 1106.644531 1039.09375 1089.808594 1059.644531 1062.4375 1068.191406 C 1039.015625 1075.613281 1015.042969 1080.0625 990.515625 1081.535156 C 938.894531 1084.289062 885.71875 1077 835.78125 1086.921875 C 779.28125 1098.140625 725.554688 1123.507812 670.835938 1143.308594 C 667.445312 1144.722656 664.277344 1146.523438 661.328125 1148.707031 C 658.375 1150.894531 655.730469 1153.40625 653.394531 1156.238281 C 630.558594 1182.445312 608.269531 1209.222656 583.570312 1238.433594 Z M 583.570312 1238.433594 " fill-opacity="1" fill-rule="nonzero"/><path fill="#F1EBDD" d="M 484.078125 387.96875 C 484.078125 434.378906 482.683594 480.84375 484.511719 527.199219 C 485.972656 564.179688 491.351562 601.007812 495 637.902344 C 495.65625 644.503906 497.703125 651.347656 496.582031 657.625 C 495.714844 662.53125 491.601562 669.550781 487.695312 670.488281 C 486.308594 670.546875 484.933594 670.445312 483.570312 670.183594 C 482.210938 669.917969 480.894531 669.503906 479.632812 668.929688 C 478.367188 668.359375 477.183594 667.652344 476.085938 666.804688 C 474.988281 665.957031 474.003906 664.992188 473.132812 663.914062 C 410.53125 577.988281 379.625 481.378906 370.753906 375.648438 C 366.644531 326.4375 351.792969 278.164062 342.417969 229.351562 C 339.347656 213.355469 333.199219 194.609375 350.917969 183.875 C 368.632812 173.136719 384.082031 185.472656 397.984375 195.433594 C 464.414062 243.027344 489.894531 297.941406 484.078125 387.96875 Z M 484.078125 387.96875 " fill-opacity="1" fill-rule="nonzero"/><path fill="#F1EBDD" d="M 874.3125 392.164062 C 874.039062 398.917969 873.027344 405.5625 871.273438 412.09375 C 867.929688 419.160156 864.015625 425.894531 859.535156 432.300781 C 852.023438 427.742188 843.152344 424.492188 837.234375 418.386719 C 815.269531 395.714844 796.386719 369.542969 772.257812 349.644531 C 752.824219 333.59375 727.347656 324.980469 704.816406 312.585938 C 688.683594 303.707031 671.222656 296.078125 657.492188 284.253906 C 633.8125 263.867188 632.765625 231.992188 655.4375 210.429688 C 663.324219 203.089844 671.652344 196.285156 680.417969 190.023438 C 689.1875 183.757812 698.320312 178.082031 707.824219 173 C 717.324219 167.917969 727.117188 163.46875 737.191406 159.652344 C 747.269531 155.839844 757.554688 152.6875 768.039062 150.203125 C 793.464844 143.757812 820.445312 157.246094 832.820312 185.46875 C 844.078125 212.964844 852.121094 241.371094 856.941406 270.6875 C 864.503906 310.933594 868.714844 351.8125 874.3125 392.164062 Z M 874.3125 392.164062 " fill-opacity="1" fill-rule="nonzero"/><path fill="#F1EBDD" d="M 1162.472656 268.050781 C 1150.085938 286.296875 1142.222656 304.558594 1128.703125 316.324219 C 1104.867188 337.074219 1077.5625 353.847656 1051.734375 372.3125 C 1012.996094 400.007812 974.472656 428.019531 935.320312 455.128906 C 929.789062 458.964844 921.253906 458.457031 914.105469 459.960938 C 913.996094 451.578125 910.65625 441.277344 914.3125 435.132812 C 934.953125 400.460938 958.171875 367.324219 978.738281 332.605469 C 995.835938 303.753906 1010.28125 273.335938 1026.296875 243.824219 C 1036 225.941406 1044.082031 206.421875 1057.128906 191.28125 C 1076.839844 168.386719 1106.554688 169.488281 1123.597656 194.117188 C 1138.652344 215.863281 1148.625 241.15625 1162.472656 268.050781 Z M 1162.472656 268.050781 " fill-opacity="1" fill-rule="nonzero"/><path fill="#F1EBDD" d="M 888.464844 369.15625 C 883.910156 313.167969 879.117188 257.195312 875.019531 201.179688 C 873.851562 189.296875 874.417969 177.5 876.71875 165.78125 C 881.199219 146.007812 896.164062 133.734375 915.902344 137.015625 C 940.042969 140.964844 963.421875 147.59375 986.039062 156.90625 C 1006.21875 165.328125 1011.101562 185.484375 1008.164062 205.734375 C 1006.355469 222.273438 1002.183594 238.191406 995.648438 253.492188 C 970.054688 307.203125 943.082031 360.261719 915.621094 413.046875 C 912.398438 419.238281 902.960938 422.195312 896.398438 426.648438 C 892.929688 419.449219 887.589844 412.523438 886.5 404.984375 C 885.515625 393.097656 885.371094 381.199219 886.066406 369.292969 Z M 888.464844 369.15625 " fill-opacity="1" fill-rule="nonzero"/><path fill="#F1EBDD" d="M 1176.921875 457.597656 C 1172.394531 475.90625 1169.878906 495.871094 1162.464844 513.8125 C 1150.210938 543.445312 1125.660156 553.40625 1095.71875 542.25 C 1052.992188 526.332031 1010.660156 509.332031 968.394531 492.214844 C 951.53125 485.382812 947.570312 465.753906 962.566406 456.214844 C 1007.160156 427.832031 1051.929688 399.273438 1098.855469 375.1875 C 1127.820312 360.324219 1154.148438 374.433594 1165.460938 405.546875 C 1171.226562 421.425781 1172.925781 438.773438 1176.921875 457.597656 Z M 1176.921875 457.597656 " fill-opacity="1" fill-rule="nonzero"/><path fill="#F1EBDD" d="M 639.667969 988.832031 C 640.484375 1043.734375 626.296875 1093.710938 589.5 1135.53125 C 584.292969 1141.429688 574.59375 1143.335938 566.976562 1147.105469 C 564.808594 1138.816406 559.097656 1129.539062 561.074219 1122.382812 C 579.136719 1057.117188 569.078125 993.929688 550.292969 930.835938 C 544.402344 911.1875 540.179688 891.183594 537.625 870.832031 C 535.753906 855.652344 537.421875 839.027344 554.628906 831.960938 C 571.34375 825.09375 584.582031 834.296875 594.894531 846.125 C 625.460938 881.191406 635.546875 924.078125 639.578125 968.953125 C 640.164062 975.53125 639.667969 982.203125 639.667969 988.832031 Z M 639.667969 988.832031 " fill-opacity="1" fill-rule="nonzero"/><path fill="#F1EBDD" d="M 859.046875 1102.09375 C 899.949219 1098.417969 940.859375 1094.882812 981.746094 1091.023438 C 1015.148438 1087.867188 1048.386719 1088.175781 1079.351562 1102.421875 C 1085.96875 1105.414062 1092.226562 1109.027344 1098.125 1113.261719 C 1104.023438 1117.496094 1109.449219 1122.269531 1114.398438 1127.578125 C 1134.128906 1149.484375 1124.808594 1177.414062 1095.597656 1180.214844 C 1082.128906 1181.652344 1068.625 1182.070312 1055.09375 1181.46875 C 1041.558594 1180.867188 1028.148438 1179.25 1014.859375 1176.621094 C 949.5 1162.632812 884.867188 1145.253906 820.148438 1128.433594 C 815.246094 1127.160156 808.730469 1119.476562 808.867188 1114.988281 C 809.015625 1110.679688 816.359375 1104.046875 821.472656 1103.007812 C 833.863281 1101.148438 846.320312 1100.105469 858.847656 1099.871094 C 858.929688 1100.613281 858.988281 1101.355469 859.046875 1102.09375 Z M 859.046875 1102.09375 " fill-opacity="1" fill-rule="nonzero"/><path fill="#F1EBDD" d="M 721.472656 391.113281 C 763.71875 391.898438 799.796875 407.40625 832.199219 432.054688 C 836.425781 435.269531 840.691406 444.050781 839.136719 447.96875 C 836.640625 454.308594 829.964844 462.359375 823.957031 463.417969 C 782.308594 470.734375 740.46875 477.121094 698.5 482.238281 C 685.1875 483.496094 672.0625 482.417969 659.132812 479.011719 C 629.738281 471.847656 621.566406 443.304688 642.476562 420.636719 C 663.761719 397.566406 692.15625 391.621094 721.472656 391.113281 Z M 721.472656 391.113281 " fill-opacity="1" fill-rule="nonzero"/></svg>