<svg xmlns="http://www.w3.org/2000/svg" xmlns:xlink="http://www.w3.org/1999/xlink" width="2000" zoomAndPan="magnify" viewBox="0 0 1500 1499.999933" height="2000" preserveAspectRatio="xMidYMid meet" version="1.0"><path stroke-linecap="round" transform="matrix(10.5897, 0, 0, 10.588824, -60.062275, -65.868955)" fill="none" stroke-linejoin="round" d="M 75.999905 23.000169 C 74.719917 27.449879 78.169983 30.380076 79.440011 34.000123 C 82.440052 42.609952 85.350088 51.259993 87.910063 60.000045 C 88.910077 63.409817 90.45012 64.630148 94.00015 64.550096 C 103.159994 64.319901 112.340126 64.280059 121.49997 64.550096 C 125.879963 64.68991 130.230078 65.680046 134.500147 63.970181 " stroke="#000000" stroke-width="4" stroke-opacity="1" stroke-miterlimit="4"/><path stroke-linecap="round" transform="matrix(10.5897, 0, 0, 10.588824, -60.062275, -65.868955)" fill="none" stroke-linejoin="round" d="M 74.999892 29.00001 C 70.670065 35.36986 69.719849 42.999883 67.000152 49.99982 C 65.239892 54.629923 65.540154 60.869919 61.71015 63.640012 C 58.039868 66.300173 52.279922 64.319901 47.449904 64.450123 C 41.789923 64.589938 36.119983 64.509886 30.450042 64.450123 C 28.289924 64.450123 26.209852 64.519846 24.449961 65.970004 " stroke="#000000" stroke-width="4" stroke-opacity="1" stroke-miterlimit="4"/><path stroke-linecap="round" transform="matrix(10.5897, 0, 0, 10.588824, -60.062275, -65.868955)" fill="none" stroke-linejoin="round" d="M 18.500046 64.499925 C 18.739444 64.453813 18.980687 64.422087 19.223774 64.404748 C 19.466861 64.387041 19.710317 64.38409 19.953773 64.395526 C 20.197229 64.406962 20.439209 64.432785 20.679714 64.473364 C 20.920219 64.513575 21.157404 64.567804 21.391269 64.63642 C 21.625134 64.704667 21.854204 64.786932 22.078479 64.882478 C 22.302753 64.978024 22.520388 65.08685 22.731752 65.208588 C 22.943116 65.329957 23.146365 65.463869 23.341867 65.609586 C 23.53737 65.755303 23.723282 65.912087 23.899972 66.079937 C 31.139834 74.44002 40.820157 79.569987 49.559856 85.919916 C 53.240097 88.599997 54.170025 91.249828 52.559896 95.529842 C 49.619982 103.429902 47.259935 111.529908 44.429945 119.529941 C 43.079871 123.310091 44.429945 127.819932 41.229975 131.050047 " stroke="#000000" stroke-width="4" stroke-opacity="1" stroke-miterlimit="4"/><path stroke-linecap="round" transform="matrix(10.5897, 0, 0, 10.588824, -60.062275, -65.868955)" fill="none" stroke-linejoin="round" d="M 98.500027 89.999984 C 98.580072 95.650104 101.27985 100.639888 102.590086 106.00005 C 103.919872 111.11231 105.586438 116.112422 107.590154 121.00002 C 107.802256 121.425365 107.971199 121.867311 108.096985 122.325858 C 108.223139 122.784404 108.303922 123.250698 108.338965 123.724738 C 108.374008 124.198779 108.362942 124.671713 108.306136 125.143908 C 108.24896 125.615736 108.147151 126.077971 107.999971 126.529877 " stroke="#000000" stroke-width="4" stroke-opacity="1" stroke-miterlimit="4"/><path stroke-linecap="round" transform="matrix(10.5897, 0, 0, 10.588824, -60.062275, -65.868955)" fill="none" stroke-linejoin="round" d="M 110.749916 130.999877 C 110.704545 130.815425 110.648845 130.633556 110.583555 130.455007 C 110.517896 130.276458 110.442646 130.101966 110.358174 129.931902 C 110.273333 129.761469 110.179639 129.5962 110.076724 129.436465 C 109.973809 129.276361 109.862778 129.122529 109.742894 128.974598 C 109.623011 128.827037 109.49575 128.686116 109.360373 128.552204 C 109.224997 128.418661 109.082981 128.292865 108.933957 128.174448 C 108.784932 128.056399 108.629637 127.946834 108.468439 127.845755 C 108.307611 127.744675 108.141249 127.652819 107.970093 127.570184 C 97.470134 122.480059 88.969834 114.470066 79.520056 107.969993 C 76.750192 106.080102 74.799963 106.029931 71.899886 108.379844 C 64.90016 114.080135 57.399874 119.259904 49.899956 124.430081 C 48.379832 125.430177 46.850118 127.430001 44.449864 126.499996 " stroke="#000000" stroke-width="4" stroke-opacity="1" stroke-miterlimit="4"/><path stroke-linecap="round" transform="matrix(10.5897, 0, 0, 10.588824, -60.062275, -65.868955)" fill="none" stroke-linejoin="round" d="M 127.500052 66.500118 C 124.750107 71.330167 119.560069 73.239978 115.499889 76.499975 C 110.279973 80.629845 104.809961 84.500008 99.570126 88.590037 C 99.363926 88.764528 99.142603 88.916516 98.906155 89.046739 C 98.669708 89.176961 98.422563 89.282099 98.16509 89.362889 C 97.907248 89.443678 97.644242 89.498276 97.375703 89.526313 C 97.107164 89.554349 96.838624 89.555456 96.570085 89.530002 " stroke="#000000" stroke-width="4" stroke-opacity="1" stroke-miterlimit="4"/></svg>