<svg xmlns="http://www.w3.org/2000/svg" xmlns:xlink="http://www.w3.org/1999/xlink" width="2000" zoomAndPan="magnify" viewBox="0 0 1500 1499.999933" height="2000" preserveAspectRatio="xMidYMid meet" version="1.0"><defs><clipPath id="6e09d7862d"><path d="M 117.632812 122.839844 L 1349.882812 122.839844 L 1349.882812 1376.839844 L 117.632812 1376.839844 Z M 117.632812 122.839844 " clip-rule="nonzero"/></clipPath></defs><g clip-path="url(#6e09d7862d)"><path fill="#000000" d="M 894.984375 256.363281 L 948.148438 253.585938 C 957.90625 216.242188 963.359375 187.183594 991.222656 158.289062 C 1078.242188 67.957031 1139.035156 169.25 1153.429688 255 C 1202.394531 275.117188 1250.867188 238.539062 1261.878906 306.847656 C 1279.492188 416.148438 1268.75 571.847656 1277.257812 687.910156 C 1280.746094 735.832031 1292.03125 784.347656 1290.398438 832.921875 L 1349.9375 1280.988281 C 1348.027344 1308.953125 1303.535156 1294.125 1303.101562 1286.765625 C 1321.964844 1242.226562 1302.121094 1203.359375 1297.757812 1161.597656 C 1275.566406 950.1875 1255.390625 739.101562 1244.214844 526.542969 L 1224.203125 681.042969 C 1234.617188 831.125 1228.839844 981.207031 1224.476562 1129.433594 C 1222.621094 1192.835938 1215.753906 1254.328125 1224.476562 1317.1875 L 1319.023438 1303.558594 C 1330.089844 1306.230469 1326 1329.070312 1323.21875 1336.921875 C 1303.589844 1331.578125 1259.480469 1340.902344 1242.796875 1350.222656 C 1229.765625 1357.472656 1232.492188 1376.554688 1201.46875 1376.664062 C 1175.1875 1376.71875 1122.242188 1345.753906 1102.558594 1345.863281 C 1095.417969 1345.863281 1084.023438 1356.054688 1069.847656 1356.875 C 923.667969 1365.160156 779.339844 1369.140625 634.6875 1363.253906 C 585.179688 1361.234375 547.121094 1352.894531 503.230469 1349.785156 C 454.648438 1346.351562 399.140625 1359.054688 338.183594 1356.710938 C 309.230469 1355.566406 248.054688 1363.144531 226.898438 1349.40625 C 185.1875 1322.421875 234.480469 1273.792969 244.675781 1243.316406 C 247.890625 1233.667969 259.886719 1175.71875 255.90625 1172.175781 C 234.207031 1174.464844 207.761719 1168.578125 186.988281 1172.449219 C 168.722656 1175.828125 151.929688 1198.722656 126.847656 1179.261719 C 98.496094 1157.238281 144.457031 1128.015625 153.78125 1106.320312 C 192.714844 1015.660156 233.988281 850.257812 259.234375 750.550781 C 289.65625 630.722656 299.035156 512.914062 324.769531 394.398438 C 335.347656 345.660156 362.609375 297.304688 354.757812 249.929688 C 362.773438 238.484375 436.65625 252.492188 453.449219 256.308594 C 467.789062 183.53125 490.253906 104.972656 582.34375 137.355469 C 631.523438 154.636719 645.484375 201.46875 652.351562 248.570312 L 703.550781 255.875 C 705.570312 212.316406 741.335938 150.277344 781.359375 132.777344 C 848.859375 103.285156 920.832031 190.726562 895.09375 256.253906 Z M 980.644531 256.417969 L 1109.15625 256.417969 C 1136.527344 256.417969 1098.308594 154.257812 1062.8125 150.765625 C 1023.390625 146.898438 980.972656 220.273438 980.644531 256.417969 Z M 618.21875 249.824219 C 621.875 205.390625 590.957031 154.203125 542.324219 156.925781 C 514.242188 158.507812 488.617188 215.75 487.527344 241.425781 C 486.328125 269.121094 517.675781 249.824219 522.640625 249.824219 Z M 868.542969 255.984375 C 877.867188 114.023438 748.371094 136.757812 736.8125 256.417969 C 781.195312 258.652344 824.433594 264.488281 868.542969 255.984375 Z M 703.878906 282.75 L 489.707031 282.75 C 471.441406 282.75 482.347656 362.179688 488.070312 376.625 C 493.414062 390.089844 511.136719 395.652344 506.171875 414.460938 C 439.109375 424.761719 458.355469 332.796875 450.613281 288.910156 C 444.667969 279.96875 392.21875 278.988281 386.875 286.621094 C 375.96875 302.15625 355.359375 389 349.960938 413.097656 C 327.988281 511.007812 319.644531 611.753906 297.453125 709.773438 C 264.628906 854.621094 210.761719 995.652344 176.738281 1139.246094 C 215.175781 1132.652344 256.234375 1146.441406 292.054688 1146.441406 C 389 1146.441406 431.148438 1155.003906 523.347656 1164.925781 C 681.851562 1181.988281 838.226562 1199.324219 997.4375 1204.828125 C 1010.960938 1205.320312 1023.117188 1209.953125 1036.257812 1211.972656 C 1042.855469 1178.769531 1066.191406 1147.535156 1071.207031 1114.496094 C 1076.007812 1083.042969 1071.097656 1050.984375 1074.753906 1019.203125 C 1081.675781 958.144531 1105.996094 887.273438 1117.171875 824.417969 C 1144.214844 672.539062 1165.535156 518.585938 1201.304688 368.285156 C 1210.628906 329.035156 1245.632812 293.488281 1187.671875 289.835938 C 1169.734375 288.691406 1120.226562 302.320312 1116.683594 301.667969 C 1109.484375 300.359375 1104.25 285.53125 1089.3125 282.804688 C 1059.757812 277.460938 1018.429688 286.457031 987.242188 282.804688 C 974.972656 293.871094 1027.097656 372.648438 1026.878906 391.835938 C 1026.664062 411.027344 1005.125 416.257812 993.402344 391.945312 C 978.300781 360.597656 962.757812 317.257812 953.871094 283.242188 L 730.269531 289.402344 C 735.285156 309.191406 736.375 330.777344 746.1875 349.203125 C 753.277344 362.5625 769.796875 370.355469 770.070312 372.046875 C 773.289062 389.328125 761.890625 395.488281 746.570312 395.433594 C 723.070312 395.324219 695.101562 304.609375 703.878906 282.804688 Z M 1151.90625 816.40625 C 1154.738281 769.683594 1174.96875 725.253906 1171.695312 678.097656 L 1153.050781 754.855469 C 1154.03125 768.648438 1148.523438 782.605469 1147.324219 795.308594 C 1146.617188 802.613281 1139.472656 817.714844 1151.960938 816.40625 Z M 1194.816406 724.21875 L 1194.816406 730.816406 C 1199.066406 728.632812 1199.066406 726.398438 1194.816406 724.21875 Z M 1119.570312 1323.292969 L 1178.132812 1340.683594 C 1182.21875 1346.242188 1190.726562 1335.832031 1191.378906 1333.324219 C 1193.507812 1324.4375 1183.964844 1274.9375 1184.675781 1254.328125 C 1188.21875 1147.042969 1199.941406 1038.554688 1205.011719 932.085938 C 1208.011719 868.957031 1199.339844 806.808594 1198.085938 744.0625 C 1184.292969 750.167969 1183.203125 781.242188 1180.476562 795.523438 C 1155.339844 927.125 1133.640625 1096.125 1121.425781 1229.308594 C 1118.917969 1256.621094 1124.097656 1294.34375 1119.625 1323.347656 Z M 1135.492188 888.964844 L 1135.492188 895.5625 C 1139.746094 893.382812 1139.746094 891.144531 1135.492188 888.964844 Z M 1138.765625 908.753906 C 1120.171875 905.648438 1127.585938 912.351562 1124.695312 923.964844 C 1109.8125 984.257812 1099.886719 1050.714844 1099.289062 1112.914062 C 1108.558594 1114.496094 1108.886719 1101.25 1110.519531 1094.652344 C 1124.96875 1036.375 1124.859375 967.632812 1138.765625 908.753906 Z M 256.453125 1323.183594 C 304.433594 1316.695312 358.792969 1332.941406 404.265625 1330.707031 C 441.070312 1328.851562 467.351562 1313.589844 509.828125 1316.96875 C 679.289062 1330.378906 818.433594 1339.59375 990.621094 1323.890625 C 1013.085938 1321.820312 1076.605469 1332.34375 1085.058594 1306.285156 C 1090.835938 1288.457031 1083.804688 1255.964844 1086.039062 1234.8125 C 1089.148438 1205.8125 1106.976562 1178.554688 1099.234375 1145.953125 L 1079.332031 1181.988281 L 1064.882812 1236.667969 C 1041.164062 1244.40625 1010.414062 1232.632812 983.859375 1231.597656 C 830.648438 1225.546875 682.015625 1206.355469 529.292969 1191.964844 C 450.996094 1184.605469 374.605469 1161.816406 292.710938 1171.902344 L 252.417969 1303.285156 L 256.398438 1323.238281 Z M 256.453125 1323.183594 " fill-opacity="1" fill-rule="nonzero"/></g><path fill="#000000" d="M 572.09375 1027.328125 C 563.96875 1044.5 572.582031 1095.144531 542.484375 1086.585938 C 522.75 1070.9375 535.78125 1046.679688 539.105469 1027.378906 C 486.273438 1037.085938 440.90625 996.523438 410.753906 1052.511719 C 381.964844 1038.992188 391.453125 1010.535156 348.269531 1013.859375 C 346.742188 1002.957031 346.253906 985.132812 358.683594 981.640625 L 406.503906 986.875 C 414.027344 980.277344 440.089844 873.429688 439.925781 858.65625 C 439.597656 830.578125 356.503906 854.183594 367.789062 813.242188 C 374.988281 787.183594 425.421875 828.289062 447.125 813.515625 L 486.433594 695.105469 C 486.816406 683.824219 428.585938 683.277344 418.0625 685.023438 C 408.136719 682.785156 407.8125 653.949219 418.0625 651.386719 L 492.707031 658.199219 L 499.464844 579.207031 C 482.074219 576.261719 428.203125 587.65625 420.40625 569.285156 C 411.902344 549.277344 441.671875 545.296875 456.609375 545.679688 C 524.875 547.371094 598.917969 548.460938 667.457031 552.929688 C 748.042969 558.164062 812.109375 576.808594 898.039062 572.554688 C 915.214844 571.683594 1002.835938 544.808594 999.890625 582.585938 C 998.964844 594.308594 964.886719 595.78125 960.089844 603.140625 C 954.636719 611.480469 938.167969 692.816406 941.332031 697.289062 C 971.972656 706.335938 997.875 691.289062 993.621094 737.300781 L 934.351562 730.707031 L 907.417969 859.527344 L 933.152344 892.289062 C 929.226562 910.445312 897.441406 906.792969 895.203125 909.082031 C 893.1875 911.097656 895.3125 928.652344 893.1875 936.558594 C 887.898438 955.910156 875.519531 978.425781 874.8125 997.667969 C 874.265625 1012.988281 876.503906 1004.921875 884.734375 1007.589844 C 891.496094 1009.828125 904.855469 1012.660156 911.941406 1013.261719 C 934.082031 1015.113281 975.847656 1004.429688 983.914062 1020.621094 C 1012.648438 1078.351562 869.359375 1029.617188 855.890625 1041.117188 C 845.261719 1062.542969 858.238281 1126.328125 825.578125 1126.328125 C 787.953125 1126.328125 829.175781 1040.628906 822.25 1033.8125 L 709.820312 1030.105469 L 696.410156 1105.609375 L 664.074219 1106.320312 L 670.671875 1027.21875 L 571.820312 1027.21875 Z M 637.6875 677.769531 C 639.59375 651.113281 648.371094 618.949219 648.589844 592.78125 C 648.753906 570.757812 628.308594 585.421875 614.949219 585.859375 C 587.578125 586.839844 559.988281 585.148438 532.671875 585.859375 L 522.257812 658.636719 C 530.164062 669.375 632.453125 682.839844 637.742188 677.714844 Z M 783.046875 599.050781 L 670.945312 585.910156 C 689.046875 619.277344 666.527344 651.003906 664.347656 684.640625 L 768.871094 690.363281 L 782.992188 599.050781 Z M 927.917969 599.050781 L 815.871094 599.050781 L 802.675781 697.832031 C 827.429688 694.890625 897.984375 707.046875 911.34375 684.585938 C 921.703125 667.140625 918.484375 620.691406 927.917969 598.996094 Z M 624.871094 704.429688 L 519.039062 694.289062 L 479.835938 823 L 598.917969 826.761719 C 608.84375 786.367188 626.5625 746.679688 624.871094 704.429688 Z M 763.199219 724.21875 L 657.914062 711.136719 L 631.304688 836.195312 L 735.9375 848.570312 L 763.144531 724.21875 Z M 901.582031 724.21875 L 795.699219 733.648438 L 770.289062 855.4375 L 874.375 868.304688 Z M 552.300781 994.34375 L 590.742188 865.632812 C 587.6875 858.65625 582.507812 856.964844 575.417969 855.875 C 543.359375 851.078125 499.847656 852.496094 466.699219 849.441406 L 440.253906 994.34375 Z M 683.214844 1000.066406 L 723.398438 886.074219 C 720.617188 872.445312 635.667969 868.578125 618.273438 862.523438 L 585.289062 994.289062 L 683.269531 1000.015625 Z M 717.074219 1000.941406 L 838.988281 1000.941406 L 868.652344 902.15625 C 842.75 907.117188 769.308594 876.046875 753.167969 895.453125 C 749.625 899.757812 712.984375 997.125 717.074219 1000.941406 Z M 717.074219 1000.941406 " fill-opacity="1" fill-rule="nonzero"/></svg>