<svg xmlns="http://www.w3.org/2000/svg" xmlns:xlink="http://www.w3.org/1999/xlink" width="2000" zoomAndPan="magnify" viewBox="0 0 1500 1499.999933" height="2000" preserveAspectRatio="xMidYMid meet" version="1.0"><defs><clipPath id="3899e0f8dd"><path d="M 157 86.636719 L 1454 86.636719 L 1454 1404 L 157 1404 Z M 157 86.636719 " clip-rule="nonzero"/></clipPath></defs><g clip-path="url(#3899e0f8dd)"><path fill="#2A1A13" d="M 1447.191406 1123.625 C 1432.832031 1110.429688 1421.453125 1093.3125 1407.203125 1081.066406 C 1393.296875 1069.269531 1386.394531 1051.492188 1372.933594 1039.140625 C 1334.554688 1003.011719 1293.648438 970.617188 1250.816406 940.015625 C 1224.054688 912.867188 1193.972656 889.953125 1160.335938 871.96875 C 1139.078125 861.117188 1109.128906 829.304688 1084.417969 842.738281 C 1024.363281 883.632812 978.105469 942.125 951.527344 1009.277344 C 949.5 1022.367188 959.351562 1033.507812 964.433594 1046.964844 C 974.523438 1045.75 990.722656 1029.976562 994.332031 1020.996094 C 998.757812 1001.5625 1006.84375 983.417969 1017.566406 966.828125 C 1018.066406 970.089844 1019.621094 971.960938 1023.042969 971.75 C 1041.484375 978.652344 1060.792969 989.765625 1073.25 1005.695312 C 1102.332031 1031.503906 1137.15625 1050.992188 1167.15625 1075.878906 C 1219.785156 1139.898438 1290.039062 1186.25 1349.492188 1243.867188 C 1324.359375 1276.894531 1288.484375 1300.015625 1254.582031 1322.082031 C 1180.566406 1367.273438 1089.003906 1371.144531 1004.921875 1358.898438 C 821.457031 1325.21875 681.480469 1188.699219 541.160156 1075.695312 C 299.296875 876.550781 43.339844 488.164062 286.675781 199.375 C 287.390625 201.667969 288.890625 202.929688 291.734375 202.800781 C 304.011719 205.273438 313.097656 215.519531 324.136719 221.179688 C 330.90625 225.449219 336.277344 231.242188 340.757812 238.167969 C 348.894531 249.203125 361.90625 255.023438 372.023438 263.898438 C 389.59375 282.777344 412.484375 295.472656 430.132812 314.144531 C 443.960938 335.476562 459.921875 354.9375 478.597656 372.183594 C 509.179688 412.160156 548.851562 443.949219 580.855469 482.84375 C 580.855469 482.84375 598.847656 502.726562 598.847656 502.726562 C 600.425781 504.675781 605.273438 504.570312 608.410156 504.148438 C 589.679688 518.027344 569.316406 530.089844 547.902344 539.042969 C 530.832031 546.3125 511.84375 546.917969 499.855469 564.640625 C 474.648438 609.699219 569.265625 705.085938 595.289062 742.742188 C 661.460938 823.566406 738.535156 894.933594 816.765625 963.824219 C 855.648438 995.769531 892.761719 1045.144531 947.261719 1046.277344 C 951.503906 1045.910156 957.824219 1039.117188 949.261719 1040.828125 C 948.105469 1037.667969 953.609375 1034.847656 953.425781 1032.269531 C 942.941406 1021.945312 937.25 1006.300781 921.972656 1001.429688 C 890.523438 985.8125 864.261719 960.953125 835.601562 940.226562 C 796.40625 908.46875 763.398438 869.464844 724.152344 837.574219 C 690.515625 806.050781 663.804688 767.972656 632.828125 733.894531 C 596.054688 688.070312 549.824219 643.960938 533.679688 586.078125 C 613.042969 561.480469 683.664062 504.359375 725.230469 431.964844 C 735.164062 416.480469 720.9375 401.234375 712.21875 388.75 C 635.460938 283.09375 543.820312 189.605469 438.585938 112.3125 C 419.464844 101.199219 398.917969 103.570312 375.550781 99.960938 C 397.363281 147.496094 449.652344 168.933594 487.421875 202.140625 C 561.46875 268.1875 637.148438 335.449219 690.410156 420.167969 C 675.894531 444.683594 654.585938 464.066406 634.011719 483.371094 C 633.984375 467.832031 615.730469 464.066406 607.671875 453.269531 C 589.152344 430.808594 565.050781 414.636719 544.847656 393.886719 C 526.960938 378.296875 517.691406 356.148438 501.171875 339.425781 C 463.636719 296.605469 421.042969 258.367188 373.472656 227.1875 C 363.832031 217.019531 354.480469 206.617188 343.3125 197.953125 C 332.75 188.949219 325.558594 174.148438 310.621094 172.066406 C 332.089844 143.757812 363.304688 120.6875 375.15625 86.636719 C 356.375 88.347656 342.890625 100.566406 326.320312 107.785156 C 301.140625 118.238281 287.414062 143.597656 269.503906 163.164062 C 178.335938 269.953125 139.035156 419.21875 166.507812 557.003906 C 184.632812 662.132812 226.9375 761.703125 288.523438 848.609375 C 356.640625 944.730469 432.371094 1036.324219 522.589844 1112.484375 C 669.890625 1231.808594 821.929688 1364.691406 1015.273438 1396.925781 C 1112.050781 1413.308594 1217.335938 1399.664062 1298.390625 1341.625 C 1365.296875 1299.25 1427.511719 1244.265625 1429.648438 1159.359375 C 1411.789062 1174.765625 1398.300781 1195.648438 1379.992188 1211.976562 C 1361.398438 1202.574219 1347.488281 1188.011719 1331.816406 1174.925781 C 1316.960938 1165.152344 1301.734375 1155.753906 1288.300781 1143.953125 C 1274.65625 1133.789062 1263.882812 1120.964844 1253.6875 1107.535156 C 1224.421875 1079.195312 1193.417969 1052.703125 1160.863281 1028.265625 C 1137.339844 1010.648438 1108.757812 999.902344 1089.398438 977.203125 C 1070.246094 966.429688 1059.449219 939.621094 1035.347656 940.175781 C 1050.441406 914.15625 1072.539062 892.695312 1097.984375 876.707031 C 1179.089844 928.5625 1257.480469 984.707031 1333.183594 1044.355469 C 1353.679688 1060.105469 1366.929688 1082.859375 1384.917969 1101.1875 C 1402.910156 1124.464844 1413.894531 1153.828125 1445.453125 1160.96875 C 1453.167969 1154.039062 1456.960938 1129.46875 1447.191406 1123.625 Z M 533.574219 583.757812 C 533.625 581.917969 534.074219 583.3125 533.601562 584.3125 C 533.574219 584.128906 533.574219 583.917969 533.574219 583.757812 Z M 533.574219 583.757812 " fill-opacity="1" fill-rule="nonzero"/></g><path fill="#2A1A13" d="M 219.769531 500.777344 C 216.398438 562.140625 241.003906 621.207031 276.089844 670.691406 C 279.828125 675.90625 287.835938 686.125 292.050781 690.996094 C 301.296875 707.769531 316.546875 700.160156 332.800781 696.5 C 336.542969 691.101562 334.988281 684.410156 334.671875 678.960938 C 335.328125 665.714844 319.367188 663.949219 313.28125 653.941406 C 294.578125 627.765625 270.503906 603.511719 264.3125 570.671875 C 261.019531 529.21875 256.042969 487.742188 256.515625 445.949219 C 256.78125 424.40625 251.117188 400.863281 260.414062 380.640625 C 264.867188 373.210938 267.160156 364.839844 271.003906 357.175781 C 283.199219 340.453125 297.742188 324.070312 279.40625 303.714844 C 274.824219 301.609375 253.515625 302.082031 255.832031 309.878906 C 254.382812 322.042969 246.164062 332.65625 243.453125 344.71875 C 241.027344 356.4375 230.4375 365.234375 228.199219 377.109375 C 225.40625 393.78125 223.722656 410.660156 221.429688 427.382812 C 222.035156 452.113281 226.460938 476.523438 219.769531 500.777344 Z M 219.769531 500.777344 " fill-opacity="1" fill-rule="nonzero"/></svg>